<svg xmlns="http://www.w3.org/2000/svg" xmlns:xlink="http://www.w3.org/1999/xlink" width="2050" height="151.97"><rect width="2050" height="151.97" rx="0" ry="0" class="a"/><svg height="151.97" viewBox="0 0 205 15.197" width="2050" xmlns="http://www.w3.org/2000/svg" xmlns:xlink="http://www.w3.org/1999/xlink"><style>@keyframes m{0%{transform:translateX(0)}3.2%{transform:translateX(-820px)}3.3%{transform:translateX(-1025px)}3.6%{transform:translateX(-1230px)}3.7%{transform:translateX(-1435px)}11.2%{transform:translateX(-1640px)}12.3%{transform:translateX(-1845px)}13.3%{transform:translateX(-2050px)}14.7%{transform:translateX(-2255px)}16.4%{transform:translateX(-2460px)}17%{transform:translateX(-2665px)}21.1%{transform:translateX(-3075px)}24.1%{transform:translateX(-3690px)}24.2%{transform:translateX(-4100px)}47.4%{transform:translateX(-4305px)}48.4%{transform:translateX(-4510px)}49.3%{transform:translateX(-4715px)}50.4%{transform:translateX(-4920px)}51.4%{transform:translateX(-5125px)}52.3%{transform:translateX(-5330px)}53.3%{transform:translateX(-5535px)}54.3%{transform:translateX(-5740px)}55.3%{transform:translateX(-5945px)}56.3%{transform:translateX(-6150px)}57.3%{transform:translateX(-6355px)}58.3%{transform:translateX(-6560px)}59.3%{transform:translateX(-6765px)}60.3%{transform:translateX(-6970px)}61.3%{transform:translateX(-7175px)}62.3%{transform:translateX(-7585px)}63.3%{transform:translateX(-7790px)}64.3%{transform:translateX(-7995px)}65.3%{transform:translateX(-8200px)}66.3%{transform:translateX(-8405px)}67.3%{transform:translateX(-8610px)}68.3%{transform:translateX(-8815px)}69.3%{transform:translateX(-9020px)}70.2%{transform:translateX(-9225px)}71.2%{transform:translateX(-9430px)}72.3%{transform:translateX(-9635px)}73.2%{transform:translateX(-9840px)}74.2%{transform:translateX(-10045px)}75.2%{transform:translateX(-10250px)}76.2%{transform:translateX(-10455px)}77.2%{transform:translateX(-10660px)}78.2%{transform:translateX(-10865px)}79.2%{transform:translateX(-11070px)}80.2%{transform:translateX(-11275px)}81.2%{transform:translateX(-11480px)}82.2%{transform:translateX(-11685px)}83.2%{transform:translateX(-11890px)}84.2%{transform:translateX(-12095px)}93.6%{transform:translateX(-12300px)}94%{transform:translateX(-13120px)}to{transform:translateX(-13325px)}}.a{fill:#282d35}.c{fill:#71bef2}.d{fill:#d290e4}.e{fill:#6c6c6c}.f{fill:#a8cc8c}.g{fill:#afafaf}.h{fill:#b9c0cb}</style><g font-size="1.67" font-family="Monaco,Consolas,Menlo,'Bitstream Vera Sans Mono','Powerline Symbols',monospace"><defs><symbol id="1"><text y="1.67" class="c">~/go/src/github.com/vbauerster/mpb/examples/io/multiple</text></symbol><symbol id="2"><text y="1.67" class="d">❯</text></symbol><symbol id="3"><text y="1.67" class="c">~/go/src/github.com/vbauerster/mpb/examples/io/multiple</text><text x="56.112" y="1.67" class="e">master*</text></symbol><symbol id="4"><text y="1.67" class="d">❯</text><text x="2.004" y="1.67" class="f">go</text><text x="5.01" y="1.67" class="g">run</text><text x="9.018" y="1.67" class="g">-race</text><text x="15.03" y="1.67" class="g">main.go</text></symbol><symbol id="5"><text y="1.67" class="d">❯</text><text x="2.004" y="1.67" class="f">go</text><text x="5.01" y="1.67" class="h">run</text><path class="h" d="M8.016 0h1v2.171h-1z"/><text x="8.016" y="1.67" class="a"></text><text x="9.018" y="1.67" class="h">-race</text><text x="15.03" y="1.67" class="h">main.go</text></symbol><symbol id="6"><text y="1.67" class="d">❯</text><text x="2.004" y="1.67" class="f">go</text><text x="5.01" y="1.67" class="h">run</text><text x="9.018" y="1.67" class="h">-race</text><text x="15.03" y="1.67" fill="#b9c0cb" text-decoration="underline">main.go</text></symbol><symbol id="7"><text y="1.67" class="h">url1:</text><text x="6.012" y="1.67" class="h">166.3KiB</text><text x="15.03" y="1.67" class="h">/</text><text x="17.034" y="1.67" class="h">1.3MiB</text><text x="24.048" y="1.67" class="h">[=======&gt;------------------------------------------------------]</text><text x="89.178" y="1.67" class="h">8s</text></symbol><symbol id="8"><text y="1.67" class="h">url1:</text><text x="6.012" y="1.67" class="h">194.1KiB</text><text x="15.03" y="1.67" class="h">/</text><text x="17.034" y="1.67" class="h">1.3MiB</text><text x="24.048" y="1.67" class="h">[========&gt;-----------------------------------------------------]</text><text x="89.178" y="1.67" class="h">8s</text></symbol><symbol id="9"><text y="1.67" class="h">url2:</text><text x="8.016" y="1.67" class="h">1.0MiB</text><text x="15.03" y="1.67" class="h">/</text><text x="17.034" y="1.67" class="h">1.0MiB</text><text x="24.048" y="1.67" class="h">[==============================================================]</text><text x="89.178" y="1.67" class="h">0s</text></symbol><symbol id="10"><text y="1.67" class="h">url2:</text><text x="6.012" y="1.67" class="h">1.0MiB</text><text x="13.026" y="1.67" class="h">/</text><text x="15.03" y="1.67" class="h">1.0MiB</text><text x="22.044" y="1.67" class="h">[==============================================================]</text><text x="87.174" y="1.67" class="h">0s</text></symbol><symbol id="11"><text y="1.67" class="h">url1:</text><text x="6.012" y="1.67" class="h">1.3MiB</text><text x="13.026" y="1.67" class="h">/</text><text x="15.03" y="1.67" class="h">1.3MiB</text><text x="22.044" y="1.67" class="h">[==============================================================]</text><text x="87.174" y="1.67" class="h">0s</text></symbol><symbol id="12"><text y="1.67" class="c">~/go/src/github.com/vbauerster/mpb/examples/io/multiple</text><text x="56.112" y="1.67" class="e">master*</text><text x="64.128" y="1.67" fill="#dbab79">8s</text></symbol><symbol id="a"><path fill="transparent" d="M0 0h205v8H0z"/></symbol><symbol id="b"><path fill="#6f7683" d="M0 0h1.102v2.171H0z"/></symbol></defs><path class="a" d="M0 0h205v15.197H0z"/><g style="animation-duration:12.05828s;animation-iteration-count:infinite;animation-name:m;animation-timing-function:steps(1,end)"><svg width="13530"><svg><use xlink:href="#a"/><use xlink:href="#b" x="-.004"/></svg><svg x="205"><use xlink:href="#a"/><use xlink:href="#b" x="-.004"/></svg><svg x="410"><use xlink:href="#a"/><use xlink:href="#b" x=".996" y="4.317"/><use xlink:href="#1" y="2.171"/></svg><svg x="615"><use xlink:href="#a"/><use xlink:href="#b" x=".996" y="4.317"/><use xlink:href="#1" y="2.171"/></svg><svg x="820"><use xlink:href="#a"/><use xlink:href="#b" x="1.996" y="4.317"/><use xlink:href="#1" y="2.171"/><use xlink:href="#2" y="4.342"/></svg><svg x="1025"><use xlink:href="#a"/><use xlink:href="#b" x="1.996" y="4.317"/><use xlink:href="#1" y="2.171"/><use xlink:href="#2" y="4.342"/></svg><svg x="1230"><use xlink:href="#a"/><use xlink:href="#b" x="1.996" y="4.317"/><text y="3.841" class="c">~/go/src/github.com/vbauerster/mpb/examples/io/multiple</text><text x="56.112" y="3.841" class="e">master</text><use xlink:href="#2" y="4.342"/></svg><svg x="1435"><use xlink:href="#a"/><use xlink:href="#b" x="1.996" y="4.317"/><use xlink:href="#3" y="2.171"/><use xlink:href="#2" y="4.342"/></svg><svg x="1640"><use xlink:href="#a"/><use xlink:href="#b" x="2.996" y="4.317"/><use xlink:href="#3" y="2.171"/><text y="6.012" class="d">❯</text><text x="2.004" y="6.012" fill="#e88388" font-weight="700">g</text><text x="3.006" y="6.012" class="g">o</text><text x="5.01" y="6.012" class="g">run</text><text x="9.018" y="6.012" class="g">-race</text><text x="15.03" y="6.012" class="g">main.go</text></svg><svg x="1845"><use xlink:href="#a"/><use xlink:href="#b" x="3.996" y="4.317"/><use xlink:href="#3" y="2.171"/><use xlink:href="#4" y="4.342"/></svg><svg x="2050"><use xlink:href="#a"/><use xlink:href="#b" x="4.996" y="4.317"/><use xlink:href="#3" y="2.171"/><use xlink:href="#4" y="4.342"/></svg><svg x="2255"><use xlink:href="#a"/><use xlink:href="#b" x="5.996" y="4.317"/><use xlink:href="#3" y="2.171"/><text y="6.012" class="d">❯</text><text x="2.004" y="6.012" class="f">go</text><text x="5.01" y="6.012" class="h">r</text><text x="6.012" y="6.012" class="g">un</text><text x="9.018" y="6.012" class="g">-race</text><text x="15.03" y="6.012" class="g">main.go</text></svg><svg x="2460"><use xlink:href="#a"/><use xlink:href="#b" x="6.996" y="4.317"/><use xlink:href="#3" y="2.171"/><text y="6.012" class="d">❯</text><text x="2.004" y="6.012" class="f">go</text><text x="5.01" y="6.012" class="h">ru</text><text x="7.014" y="6.012" class="g">n</text><text x="9.018" y="6.012" class="g">-race</text><text x="15.03" y="6.012" class="g">main.go</text></svg><svg x="2665"><use xlink:href="#a"/><use xlink:href="#b" x="7.996" y="4.317"/><use xlink:href="#3" y="2.171"/><text y="6.012" class="d">❯</text><text x="2.004" y="6.012" class="f">go</text><text x="5.01" y="6.012" class="h">run</text><text x="9.018" y="6.012" class="g">-race</text><text x="15.03" y="6.012" class="g">main.go</text></svg><svg x="2870"><use xlink:href="#a"/><use xlink:href="#b" x="21.996" y="4.317"/><use xlink:href="#3" y="2.171"/><use xlink:href="#5" y="4.342"/></svg><svg x="3075"><use xlink:href="#a"/><use xlink:href="#b" x="21.996" y="4.317"/><use xlink:href="#3" y="2.171"/><use xlink:href="#5" y="4.342"/></svg><svg x="3280"><use xlink:href="#a"/><use xlink:href="#b" x="21.996" y="4.317"/><use xlink:href="#3" y="2.171"/><use xlink:href="#6" y="4.342"/></svg><svg x="3485"><use xlink:href="#a"/><use xlink:href="#b" x="21.996" y="4.317"/><use xlink:href="#3" y="2.171"/><use xlink:href="#6" y="4.342"/></svg><svg x="3690"><use xlink:href="#a"/><use xlink:href="#b" x="21.996" y="4.317"/><use xlink:href="#3" y="2.171"/><use xlink:href="#6" y="4.342"/></svg><svg x="3895"><use xlink:href="#a"/><use xlink:href="#b" x="-.004" y="6.488"/><use xlink:href="#3" y="2.171"/><use xlink:href="#6" y="4.342"/></svg><svg x="4100"><use xlink:href="#a"/><use xlink:href="#b" x="-.004" y="6.488"/><use xlink:href="#3" y="2.171"/><use xlink:href="#6" y="4.342"/></svg><svg x="4305"><use xlink:href="#a"/><use xlink:href="#b" x="-.004" y="8.659"/><use xlink:href="#3" y="2.171"/><use xlink:href="#6" y="4.342"/><text y="8.183" class="h">url1:</text><text x="6.012" y="8.183" class="h">15.4KiB</text><text x="14.028" y="8.183" class="h">/</text><text x="16.032" y="8.183" class="h">1.3MiB</text><text x="23.046" y="8.183" class="h">[&gt;-------------------------------------------------------------]</text><text x="88.176" y="8.183" class="h">0s</text></svg><svg x="4510"><use xlink:href="#a"/><use xlink:href="#b" x="-.004" y="10.83"/><use xlink:href="#3" y="2.171"/><use xlink:href="#6" y="4.342"/><text y="8.183" class="h">url1:</text><text x="6.012" y="8.183" class="h">27.1KiB</text><text x="14.028" y="8.183" class="h">/</text><text x="16.032" y="8.183" class="h">1.3MiB</text><text x="23.046" y="8.183" class="h">[&gt;-------------------------------------------------------------]</text><text x="88.176" y="8.183" class="h">5s</text><text y="10.354" class="h">url2:</text><text x="6.012" y="10.354" class="h">15.4KiB</text><text x="14.028" y="10.354" class="h">/</text><text x="16.032" y="10.354" class="h">1.0MiB</text><text x="23.046" y="10.354" class="h">[&gt;-------------------------------------------------------------]</text><text x="88.176" y="10.354" class="h">0s</text></svg><svg x="4715"><use xlink:href="#a"/><use xlink:href="#b" x="-.004" y="10.83"/><use xlink:href="#3" y="2.171"/><use xlink:href="#6" y="4.342"/><text y="8.183" class="h">url1:</text><text x="6.012" y="8.183" class="h">43.1KiB</text><text x="14.028" y="8.183" class="h">/</text><text x="16.032" y="8.183" class="h">1.3MiB</text><text x="23.046" y="8.183" class="h">[=&gt;------------------------------------------------------------]</text><text x="88.176" y="8.183" class="h">4s</text><text y="10.354" class="h">url2:</text><text x="6.012" y="10.354" class="h">26.6KiB</text><text x="14.028" y="10.354" class="h">/</text><text x="16.032" y="10.354" class="h">1.0MiB</text><text x="23.046" y="10.354" class="h">[=&gt;------------------------------------------------------------]</text><text x="88.176" y="10.354" class="h">3s</text></svg><svg x="4920"><use xlink:href="#a"/><use xlink:href="#b" x="-.004" y="10.83"/><use xlink:href="#3" y="2.171"/><use xlink:href="#6" y="4.342"/><text y="8.183" class="h">url1:</text><text x="6.012" y="8.183" class="h">54.9KiB</text><text x="14.028" y="8.183" class="h">/</text><text x="16.032" y="8.183" class="h">1.3MiB</text><text x="23.046" y="8.183" class="h">[==&gt;-----------------------------------------------------------]</text><text x="88.176" y="8.183" class="h">8s</text><text y="10.354" class="h">url2:</text><text x="6.012" y="10.354" class="h">54.4KiB</text><text x="14.028" y="10.354" class="h">/</text><text x="16.032" y="10.354" class="h">1.0MiB</text><text x="23.046" y="10.354" class="h">[==&gt;-----------------------------------------------------------]</text><text x="88.176" y="10.354" class="h">3s</text></svg><svg x="5125"><use xlink:href="#a"/><use xlink:href="#b" x="-.004" y="10.83"/><use xlink:href="#3" y="2.171"/><use xlink:href="#6" y="4.342"/><text y="8.183" class="h">url1:</text><text x="6.012" y="8.183" class="h">70.9KiB</text><text x="14.028" y="8.183" class="h">/</text><text x="16.032" y="8.183" class="h">1.3MiB</text><text x="23.046" y="8.183" class="h">[==&gt;-----------------------------------------------------------]</text><text x="88.176" y="8.183" class="h">7s</text><text y="10.354" class="h">url2:</text><text x="6.012" y="10.354" class="h">70.4KiB</text><text x="14.028" y="10.354" class="h">/</text><text x="16.032" y="10.354" class="h">1.0MiB</text><text x="23.046" y="10.354" class="h">[===&gt;----------------------------------------------------------]</text><text x="88.176" y="10.354" class="h">5s</text></svg><svg x="5330"><use xlink:href="#a"/><use xlink:href="#b" x="-.004" y="10.83"/><use xlink:href="#3" y="2.171"/><use xlink:href="#6" y="4.342"/><text y="8.183" class="h">url1:</text><text x="6.012" y="8.183" class="h">98.8KiB</text><text x="14.028" y="8.183" class="h">/</text><text x="16.032" y="8.183" class="h">1.3MiB</text><text x="23.046" y="8.183" class="h">[====&gt;---------------------------------------------------------]</text><text x="88.176" y="8.183" class="h">8s</text><text y="10.354" class="h">url2:</text><text x="6.012" y="10.354" class="h">82.3KiB</text><text x="14.028" y="10.354" class="h">/</text><text x="16.032" y="10.354" class="h">1.0MiB</text><text x="23.046" y="10.354" class="h">[====&gt;---------------------------------------------------------]</text><text x="88.176" y="10.354" class="h">4s</text></svg><svg x="5535"><use xlink:href="#a"/><use xlink:href="#b" x="-.004" y="10.83"/><use xlink:href="#3" y="2.171"/><use xlink:href="#6" y="4.342"/><text y="8.183" class="h">url1:</text><text x="7.014" y="8.183" class="h">98.8KiB</text><text x="15.03" y="8.183" class="h">/</text><text x="17.034" y="8.183" class="h">1.3MiB</text><text x="24.048" y="8.183" class="h">[====&gt;---------------------------------------------------------]</text><text x="89.178" y="8.183" class="h">8s</text><text y="10.354" class="h">url2:</text><text x="6.012" y="10.354" class="h">110.1KiB</text><text x="15.03" y="10.354" class="h">/</text><text x="17.034" y="10.354" class="h">1.0MiB</text><text x="24.048" y="10.354" class="h">[======&gt;-------------------------------------------------------]</text><text x="89.178" y="10.354" class="h">4s</text></svg><svg x="5740"><use xlink:href="#a"/><use xlink:href="#b" x="-.004" y="10.83"/><use xlink:href="#3" y="2.171"/><use xlink:href="#6" y="4.342"/><text y="8.183" class="h">url1:</text><text x="6.012" y="8.183" class="h">110.6KiB</text><text x="15.03" y="8.183" class="h">/</text><text x="17.034" y="8.183" class="h">1.3MiB</text><text x="24.048" y="8.183" class="h">[====&gt;---------------------------------------------------------]</text><text x="89.178" y="8.183" class="h">11s</text><text y="10.354" class="h">url2:</text><text x="6.012" y="10.354" class="h">126.1KiB</text><text x="15.03" y="10.354" class="h">/</text><text x="17.034" y="10.354" class="h">1.0MiB</text><text x="24.048" y="10.354" class="h">[=======&gt;------------------------------------------------------]</text><text x="90.18" y="10.354" class="h">4s</text></svg><svg x="5945"><use xlink:href="#a"/><use xlink:href="#b" x="-.004" y="10.83"/><use xlink:href="#3" y="2.171"/><use xlink:href="#6" y="4.342"/><text y="8.183" class="h">url1:</text><text x="6.012" y="8.183" class="h">126.6KiB</text><text x="15.03" y="8.183" class="h">/</text><text x="17.034" y="8.183" class="h">1.3MiB</text><text x="24.048" y="8.183" class="h">[=====&gt;--------------------------------------------------------]</text><text x="89.178" y="8.183" class="h">11s</text><text y="10.354" class="h">url2:</text><text x="6.012" y="10.354" class="h">165.8KiB</text><text x="15.03" y="10.354" class="h">/</text><text x="17.034" y="10.354" class="h">1.0MiB</text><text x="24.048" y="10.354" class="h">[=========&gt;----------------------------------------------------]</text><text x="90.18" y="10.354" class="h">3s</text></svg><svg x="6150"><use xlink:href="#a"/><use xlink:href="#b" x="-.004" y="10.83"/><use xlink:href="#3" y="2.171"/><use xlink:href="#6" y="4.342"/><text y="8.183" class="h">url1:</text><text x="6.012" y="8.183" class="h">138.5KiB</text><text x="15.03" y="8.183" class="h">/</text><text x="17.034" y="8.183" class="h">1.3MiB</text><text x="24.048" y="8.183" class="h">[=====&gt;--------------------------------------------------------]</text><text x="89.178" y="8.183" class="h">10s</text><text y="10.354" class="h">url2:</text><text x="6.012" y="10.354" class="h">181.8KiB</text><text x="15.03" y="10.354" class="h">/</text><text x="17.034" y="10.354" class="h">1.0MiB</text><text x="24.048" y="10.354" class="h">[==========&gt;---------------------------------------------------]</text><text x="90.18" y="10.354" class="h">4s</text></svg><svg x="6355"><use xlink:href="#a"/><use xlink:href="#b" x="-.004" y="10.83"/><use xlink:href="#3" y="2.171"/><use xlink:href="#6" y="4.342"/><use xlink:href="#7" y="6.513"/><text y="10.354" class="h">url2:</text><text x="6.012" y="10.354" class="h">221.5KiB</text><text x="15.03" y="10.354" class="h">/</text><text x="17.034" y="10.354" class="h">1.0MiB</text><text x="24.048" y="10.354" class="h">[============&gt;-------------------------------------------------]</text><text x="89.178" y="10.354" class="h">3s</text></svg><svg x="6560"><use xlink:href="#a"/><use xlink:href="#b" x="-.004" y="10.83"/><use xlink:href="#3" y="2.171"/><use xlink:href="#6" y="4.342"/><use xlink:href="#7" y="6.513"/><text y="10.354" class="h">url2:</text><text x="6.012" y="10.354" class="h">249.3KiB</text><text x="15.03" y="10.354" class="h">/</text><text x="17.034" y="10.354" class="h">1.0MiB</text><text x="24.048" y="10.354" class="h">[==============&gt;-----------------------------------------------]</text><text x="89.178" y="10.354" class="h">3s</text></svg><svg x="6765"><use xlink:href="#a"/><use xlink:href="#b" x="-.004" y="10.83"/><use xlink:href="#3" y="2.171"/><use xlink:href="#6" y="4.342"/><use xlink:href="#8" y="6.513"/><text y="10.354" class="h">url2:</text><text x="6.012" y="10.354" class="h">277.1KiB</text><text x="15.03" y="10.354" class="h">/</text><text x="17.034" y="10.354" class="h">1.0MiB</text><text x="24.048" y="10.354" class="h">[================&gt;---------------------------------------------]</text><text x="89.178" y="10.354" class="h">3s</text></svg><svg x="6970"><use xlink:href="#a"/><use xlink:href="#b" x="-.004" y="10.83"/><use xlink:href="#3" y="2.171"/><use xlink:href="#6" y="4.342"/><use xlink:href="#8" y="6.513"/><text y="10.354" class="h">url2:</text><text x="6.012" y="10.354" class="h">305.0KiB</text><text x="15.03" y="10.354" class="h">/</text><text x="17.034" y="10.354" class="h">1.0MiB</text><text x="24.048" y="10.354" class="h">[=================&gt;--------------------------------------------]</text><text x="89.178" y="10.354" class="h">2s</text></svg><svg x="7175"><use xlink:href="#a"/><use xlink:href="#b" x="-.004" y="10.83"/><use xlink:href="#3" y="2.171"/><use xlink:href="#6" y="4.342"/><text y="8.183" class="h">url1:</text><text x="6.012" y="8.183" class="h">222.0KiB</text><text x="15.03" y="8.183" class="h">/</text><text x="17.034" y="8.183" class="h">1.3MiB</text><text x="24.048" y="8.183" class="h">[=========&gt;----------------------------------------------------]</text><text x="89.178" y="8.183" class="h">8s</text><text y="10.354" class="h">url2:</text><text x="6.012" y="10.354" class="h">332.8KiB</text><text x="15.03" y="10.354" class="h">/</text><text x="17.034" y="10.354" class="h">1.0MiB</text><text x="24.048" y="10.354" class="h">[===================&gt;------------------------------------------]</text><text x="89.178" y="10.354" class="h">2s</text></svg><svg x="7380"><use xlink:href="#a"/><use xlink:href="#b" x="-.004" y="6.488"/><use xlink:href="#3" y="2.171"/><use xlink:href="#6" y="4.342"/></svg><svg x="7585"><use xlink:href="#a"/><use xlink:href="#b" x="-.004" y="10.83"/><use xlink:href="#3" y="2.171"/><use xlink:href="#6" y="4.342"/><text y="8.183" class="h">url1:</text><text x="6.012" y="8.183" class="h">249.8KiB</text><text x="15.03" y="8.183" class="h">/</text><text x="17.034" y="8.183" class="h">1.3MiB</text><text x="24.048" y="8.183" class="h">[==========&gt;---------------------------------------------------]</text><text x="89.178" y="8.183" class="h">6s</text><text y="10.354" class="h">url2:</text><text x="6.012" y="10.354" class="h">388.5KiB</text><text x="15.03" y="10.354" class="h">/</text><text x="17.034" y="10.354" class="h">1.0MiB</text><text x="24.048" y="10.354" class="h">[======================&gt;---------------------------------------]</text><text x="89.178" y="10.354" class="h">1s</text></svg><svg x="7790"><use xlink:href="#a"/><use xlink:href="#b" x="-.004" y="10.83"/><use xlink:href="#3" y="2.171"/><use xlink:href="#6" y="4.342"/><text y="8.183" class="h">url1:</text><text x="6.012" y="8.183" class="h">265.8KiB</text><text x="15.03" y="8.183" class="h">/</text><text x="17.034" y="8.183" class="h">1.3MiB</text><text x="24.048" y="8.183" class="h">[===========&gt;--------------------------------------------------]</text><text x="89.178" y="8.183" class="h">7s</text><text y="10.354" class="h">url2:</text><text x="6.012" y="10.354" class="h">432.3KiB</text><text x="15.03" y="10.354" class="h">/</text><text x="17.034" y="10.354" class="h">1.0MiB</text><text x="24.048" y="10.354" class="h">[=========================&gt;------------------------------------]</text><text x="89.178" y="10.354" class="h">1s</text></svg><svg x="7995"><use xlink:href="#a"/><use xlink:href="#b" x="-.004" y="10.83"/><use xlink:href="#3" y="2.171"/><use xlink:href="#6" y="4.342"/><text y="8.183" class="h">url1:</text><text x="6.012" y="8.183" class="h">293.6KiB</text><text x="15.03" y="8.183" class="h">/</text><text x="17.034" y="8.183" class="h">1.3MiB</text><text x="24.048" y="8.183" class="h">[============&gt;-------------------------------------------------]</text><text x="89.178" y="8.183" class="h">6s</text><text y="10.354" class="h">url2:</text><text x="6.012" y="10.354" class="h">499.8KiB</text><text x="15.03" y="10.354" class="h">/</text><text x="17.034" y="10.354" class="h">1.0MiB</text><text x="24.048" y="10.354" class="h">[=============================&gt;--------------------------------]</text><text x="89.178" y="10.354" class="h">0s</text></svg><svg x="8200"><use xlink:href="#a"/><use xlink:href="#b" x="-.004" y="10.83"/><use xlink:href="#3" y="2.171"/><use xlink:href="#6" y="4.342"/><text y="8.183" class="h">url1:</text><text x="6.012" y="8.183" class="h">305.5KiB</text><text x="15.03" y="8.183" class="h">/</text><text x="17.034" y="8.183" class="h">1.3MiB</text><text x="24.048" y="8.183" class="h">[=============&gt;------------------------------------------------]</text><text x="89.178" y="8.183" class="h">5s</text><text y="10.354" class="h">url2:</text><text x="6.012" y="10.354" class="h">555.5KiB</text><text x="15.03" y="10.354" class="h">/</text><text x="17.034" y="10.354" class="h">1.0MiB</text><text x="24.048" y="10.354" class="h">[=================================&gt;----------------------------]</text><text x="89.178" y="10.354" class="h">1s</text></svg><svg x="8405"><use xlink:href="#a"/><use xlink:href="#b" x="-.004" y="10.83"/><use xlink:href="#3" y="2.171"/><use xlink:href="#6" y="4.342"/><text y="8.183" class="h">url1:</text><text x="6.012" y="8.183" class="h">333.3KiB</text><text x="15.03" y="8.183" class="h">/</text><text x="17.034" y="8.183" class="h">1.3MiB</text><text x="24.048" y="8.183" class="h">[==============&gt;-----------------------------------------------]</text><text x="89.178" y="8.183" class="h">5s</text><text y="10.354" class="h">url2:</text><text x="6.012" y="10.354" class="h">611.2KiB</text><text x="15.03" y="10.354" class="h">/</text><text x="17.034" y="10.354" class="h">1.0MiB</text><text x="24.048" y="10.354" class="h">[====================================&gt;-------------------------]</text><text x="89.178" y="10.354" class="h">0s</text></svg><svg x="8610"><use xlink:href="#a"/><use xlink:href="#b" x="-.004" y="10.83"/><use xlink:href="#3" y="2.171"/><use xlink:href="#6" y="4.342"/><text y="8.183" class="h">url1:</text><text x="6.012" y="8.183" class="h">349.3KiB</text><text x="15.03" y="8.183" class="h">/</text><text x="17.034" y="8.183" class="h">1.3MiB</text><text x="24.048" y="8.183" class="h">[===============&gt;----------------------------------------------]</text><text x="89.178" y="8.183" class="h">6s</text><text y="10.354" class="h">url2:</text><text x="6.012" y="10.354" class="h">666.8KiB</text><text x="15.03" y="10.354" class="h">/</text><text x="17.034" y="10.354" class="h">1.0MiB</text><text x="24.048" y="10.354" class="h">[=======================================&gt;----------------------]</text><text x="89.178" y="10.354" class="h">0s</text></svg><svg x="8815"><use xlink:href="#a"/><use xlink:href="#b" x="-.004" y="10.83"/><use xlink:href="#3" y="2.171"/><use xlink:href="#6" y="4.342"/><text y="8.183" class="h">url1:</text><text x="6.012" y="8.183" class="h">361.1KiB</text><text x="15.03" y="8.183" class="h">/</text><text x="17.034" y="8.183" class="h">1.3MiB</text><text x="24.048" y="8.183" class="h">[===============&gt;----------------------------------------------]</text><text x="89.178" y="8.183" class="h">6s</text><text y="10.354" class="h">url2:</text><text x="6.012" y="10.354" class="h">722.5KiB</text><text x="15.03" y="10.354" class="h">/</text><text x="17.034" y="10.354" class="h">1.0MiB</text><text x="24.048" y="10.354" class="h">[===========================================&gt;------------------]</text><text x="89.178" y="10.354" class="h">0s</text></svg><svg x="9020"><use xlink:href="#a"/><use xlink:href="#b" x="-.004" y="10.83"/><use xlink:href="#3" y="2.171"/><use xlink:href="#6" y="4.342"/><text y="8.183" class="h">url1:</text><text x="6.012" y="8.183" class="h">389.0KiB</text><text x="15.03" y="8.183" class="h">/</text><text x="17.034" y="8.183" class="h">1.3MiB</text><text x="24.048" y="8.183" class="h">[=================&gt;--------------------------------------------]</text><text x="89.178" y="8.183" class="h">5s</text><text y="10.354" class="h">url2:</text><text x="6.012" y="10.354" class="h">778.2KiB</text><text x="15.03" y="10.354" class="h">/</text><text x="17.034" y="10.354" class="h">1.0MiB</text><text x="24.048" y="10.354" class="h">[==============================================&gt;---------------]</text><text x="89.178" y="10.354" class="h">0s</text></svg><svg x="9225"><use xlink:href="#a"/><use xlink:href="#b" x="-.004" y="10.83"/><use xlink:href="#3" y="2.171"/><use xlink:href="#6" y="4.342"/><text y="8.183" class="h">url1:</text><text x="6.012" y="8.183" class="h">416.8KiB</text><text x="15.03" y="8.183" class="h">/</text><text x="17.034" y="8.183" class="h">1.3MiB</text><text x="24.048" y="8.183" class="h">[==================&gt;-------------------------------------------]</text><text x="89.178" y="8.183" class="h">5s</text><text y="10.354" class="h">url2:</text><text x="6.012" y="10.354" class="h">849.8KiB</text><text x="15.03" y="10.354" class="h">/</text><text x="17.034" y="10.354" class="h">1.0MiB</text><text x="24.048" y="10.354" class="h">[==================================================&gt;-----------]</text><text x="89.178" y="10.354" class="h">0s</text></svg><svg x="9430"><use xlink:href="#a"/><use xlink:href="#b" x="-.004" y="10.83"/><use xlink:href="#3" y="2.171"/><use xlink:href="#6" y="4.342"/><text y="8.183" class="h">url1:</text><text x="6.012" y="8.183" class="h">444.7KiB</text><text x="15.03" y="8.183" class="h">/</text><text x="17.034" y="8.183" class="h">1.3MiB</text><text x="24.048" y="8.183" class="h">[===================&gt;------------------------------------------]</text><text x="89.178" y="8.183" class="h">4s</text><text y="10.354" class="h">url2:</text><text x="6.012" y="10.354" class="h">905.5KiB</text><text x="15.03" y="10.354" class="h">/</text><text x="17.034" y="10.354" class="h">1.0MiB</text><text x="24.048" y="10.354" class="h">[======================================================&gt;-------]</text><text x="89.178" y="10.354" class="h">0s</text></svg><svg x="9635"><use xlink:href="#a"/><use xlink:href="#b" x="-.004" y="10.83"/><use xlink:href="#3" y="2.171"/><use xlink:href="#6" y="4.342"/><text y="8.183" class="h">url1:</text><text x="7.014" y="8.183" class="h">472.5KiB</text><text x="16.032" y="8.183" class="h">/</text><text x="18.036" y="8.183" class="h">1.3MiB</text><text x="25.05" y="8.183" class="h">[====================&gt;-----------------------------------------]</text><text x="90.18" y="8.183" class="h">4s</text><text y="10.354" class="h">url2:</text><text x="6.012" y="10.354" class="h">1000.9KiB</text><text x="16.032" y="10.354" class="h">/</text><text x="18.036" y="10.354" class="h">1.0MiB</text><text x="25.05" y="10.354" class="h">[===========================================================&gt;--]</text><text x="90.18" y="10.354" class="h">0s</text></svg><svg x="9840"><use xlink:href="#a"/><use xlink:href="#b" x="-.004" y="10.83"/><use xlink:href="#3" y="2.171"/><use xlink:href="#6" y="4.342"/><text y="8.183" class="h">url1:</text><text x="6.012" y="8.183" class="h">500.3KiB</text><text x="15.03" y="8.183" class="h">/</text><text x="17.034" y="8.183" class="h">1.3MiB</text><text x="24.048" y="8.183" class="h">[======================&gt;---------------------------------------]</text><text x="89.178" y="8.183" class="h">3s</text><use xlink:href="#9" y="8.684"/></svg><svg x="10045"><use xlink:href="#a"/><use xlink:href="#b" x="-.004" y="10.83"/><use xlink:href="#3" y="2.171"/><use xlink:href="#6" y="4.342"/><text y="8.183" class="h">url1:</text><text x="6.012" y="8.183" class="h">556.0KiB</text><text x="15.03" y="8.183" class="h">/</text><text x="17.034" y="8.183" class="h">1.3MiB</text><text x="24.048" y="8.183" class="h">[========================&gt;-------------------------------------]</text><text x="89.178" y="8.183" class="h">2s</text><use xlink:href="#9" y="8.684"/></svg><svg x="10250"><use xlink:href="#a"/><use xlink:href="#b" x="-.004" y="10.83"/><use xlink:href="#3" y="2.171"/><use xlink:href="#6" y="4.342"/><text y="8.183" class="h">url1:</text><text x="6.012" y="8.183" class="h">627.7KiB</text><text x="15.03" y="8.183" class="h">/</text><text x="17.034" y="8.183" class="h">1.3MiB</text><text x="24.048" y="8.183" class="h">[===========================&gt;----------------------------------]</text><text x="89.178" y="8.183" class="h">1s</text><use xlink:href="#9" y="8.684"/></svg><svg x="10455"><use xlink:href="#a"/><use xlink:href="#b" x="-.004" y="10.83"/><use xlink:href="#3" y="2.171"/><use xlink:href="#6" y="4.342"/><text y="8.183" class="h">url1:</text><text x="6.012" y="8.183" class="h">711.2KiB</text><text x="15.03" y="8.183" class="h">/</text><text x="17.034" y="8.183" class="h">1.3MiB</text><text x="24.048" y="8.183" class="h">[===============================&gt;------------------------------]</text><text x="89.178" y="8.183" class="h">0s</text><use xlink:href="#9" y="8.684"/></svg><svg x="10660"><use xlink:href="#a"/><use xlink:href="#b" x="-.004" y="10.83"/><use xlink:href="#3" y="2.171"/><use xlink:href="#6" y="4.342"/><text y="8.183" class="h">url1:</text><text x="6.012" y="8.183" class="h">822.5KiB</text><text x="15.03" y="8.183" class="h">/</text><text x="17.034" y="8.183" class="h">1.3MiB</text><text x="24.048" y="8.183" class="h">[====================================&gt;-------------------------]</text><text x="89.178" y="8.183" class="h">0s</text><use xlink:href="#9" y="8.684"/></svg><svg x="10865"><use xlink:href="#a"/><use xlink:href="#b" x="-.004" y="10.83"/><use xlink:href="#3" y="2.171"/><use xlink:href="#6" y="4.342"/><text y="8.183" class="h">url1:</text><text x="6.012" y="8.183" class="h">917.9KiB</text><text x="15.03" y="8.183" class="h">/</text><text x="17.034" y="8.183" class="h">1.3MiB</text><text x="24.048" y="8.183" class="h">[========================================&gt;---------------------]</text><text x="89.178" y="8.183" class="h">0s</text><use xlink:href="#9" y="8.684"/></svg><svg x="11070"><use xlink:href="#a"/><use xlink:href="#b" x="-.004" y="10.83"/><use xlink:href="#3" y="2.171"/><use xlink:href="#6" y="4.342"/><text y="8.183" class="h">url1:</text><text x="6.012" y="8.183" class="h">1.0MiB</text><text x="13.026" y="8.183" class="h">/</text><text x="15.03" y="8.183" class="h">1.3MiB</text><text x="22.044" y="8.183" class="h">[==============================================&gt;---------------]</text><text x="87.174" y="8.183" class="h">0s</text><use xlink:href="#10" y="8.684"/></svg><svg x="11275"><use xlink:href="#a"/><use xlink:href="#b" x="-.004" y="10.83"/><use xlink:href="#3" y="2.171"/><use xlink:href="#6" y="4.342"/><text y="8.183" class="h">url1:</text><text x="6.012" y="8.183" class="h">1.1MiB</text><text x="13.026" y="8.183" class="h">/</text><text x="15.03" y="8.183" class="h">1.3MiB</text><text x="22.044" y="8.183" class="h">[=================================================&gt;------------]</text><text x="87.174" y="8.183" class="h">0s</text><use xlink:href="#10" y="8.684"/></svg><svg x="11480"><use xlink:href="#a"/><use xlink:href="#b" x="-.004" y="10.83"/><use xlink:href="#3" y="2.171"/><use xlink:href="#6" y="4.342"/><text y="8.183" class="h">url1:</text><text x="6.012" y="8.183" class="h">1.2MiB</text><text x="13.026" y="8.183" class="h">/</text><text x="15.03" y="8.183" class="h">1.3MiB</text><text x="22.044" y="8.183" class="h">[======================================================&gt;-------]</text><text x="87.174" y="8.183" class="h">0s</text><use xlink:href="#10" y="8.684"/></svg><svg x="11685"><use xlink:href="#a"/><use xlink:href="#b" x="-.004" y="10.83"/><use xlink:href="#3" y="2.171"/><use xlink:href="#6" y="4.342"/><text y="8.183" class="h">url1:</text><text x="6.012" y="8.183" class="h">1.2MiB</text><text x="13.026" y="8.183" class="h">/</text><text x="15.03" y="8.183" class="h">1.3MiB</text><text x="22.044" y="8.183" class="h">[=========================================================&gt;----]</text><text x="87.174" y="8.183" class="h">0s</text><use xlink:href="#10" y="8.684"/></svg><svg x="11890"><use xlink:href="#a"/><use xlink:href="#b" x="-.004" y="10.83"/><use xlink:href="#3" y="2.171"/><use xlink:href="#6" y="4.342"/><use xlink:href="#11" y="6.513"/><use xlink:href="#10" y="8.684"/></svg><svg x="12095"><use xlink:href="#a"/><use xlink:href="#b" x="-.004" y="10.83"/><use xlink:href="#3" y="2.171"/><use xlink:href="#6" y="4.342"/><use xlink:href="#11" y="6.513"/><use xlink:href="#10" y="8.684"/></svg><svg x="12300"><use xlink:href="#a"/><use xlink:href="#b" x="-.004" y="10.83"/><use xlink:href="#3" y="2.171"/><use xlink:href="#6" y="4.342"/><use xlink:href="#11" y="6.513"/><use xlink:href="#10" y="8.684"/></svg><svg x="12505"><use xlink:href="#a"/><use xlink:href="#b" x="1.996" y="15.172"/><use xlink:href="#3" y="2.171"/><use xlink:href="#6" y="4.342"/><use xlink:href="#11" y="6.513"/><use xlink:href="#10" y="8.684"/><use xlink:href="#12" y="13.026"/><use xlink:href="#2" y="15.197"/></svg><svg x="12710"><use xlink:href="#a"/><use xlink:href="#b" x="1.996" y="15.172"/><use xlink:href="#3" y="2.171"/><use xlink:href="#6" y="4.342"/><use xlink:href="#11" y="6.513"/><use xlink:href="#10" y="8.684"/><use xlink:href="#12" y="13.026"/><use xlink:href="#2" y="15.197"/></svg><svg x="12915"><use xlink:href="#a"/><use xlink:href="#b" x="1.996" y="15.172"/><use xlink:href="#3" y="2.171"/><use xlink:href="#6" y="4.342"/><use xlink:href="#11" y="6.513"/><use xlink:href="#10" y="8.684"/><use xlink:href="#12" y="13.026"/><use xlink:href="#2" y="15.197"/></svg><svg x="13120"><use xlink:href="#a"/><use xlink:href="#b" x="1.996" y="15.172"/><use xlink:href="#3" y="2.171"/><use xlink:href="#6" y="4.342"/><use xlink:href="#11" y="6.513"/><use xlink:href="#10" y="8.684"/><use xlink:href="#12" y="13.026"/><use xlink:href="#2" y="15.197"/></svg><svg x="13325"><use xlink:href="#a"/><use xlink:href="#b" x="-.004" y="15.172"/><use xlink:href="#3"/><use xlink:href="#6" y="2.171"/><use xlink:href="#11" y="4.342"/><use xlink:href="#10" y="6.513"/><use xlink:href="#12" y="10.855"/><use xlink:href="#2" y="13.026"/></svg></svg></g></g></svg></svg>