<svg xmlns="http://www.w3.org/2000/svg" xmlns:xlink="http://www.w3.org/1999/xlink" width="1020" height="151.97"><rect width="1020" height="151.97" rx="0" ry="0" class="a"/><svg height="151.97" viewBox="0 0 102 15.197" width="1020" xmlns="http://www.w3.org/2000/svg" xmlns:xlink="http://www.w3.org/1999/xlink"><style>@keyframes m{0%{transform:translateX(0)}3.2%{transform:translateX(-408px)}3.3%{transform:translateX(-510px)}3.6%{transform:translateX(-612px)}3.7%{transform:translateX(-714px)}11.2%{transform:translateX(-816px)}12.3%{transform:translateX(-918px)}13.3%{transform:translateX(-1020px)}14.7%{transform:translateX(-1122px)}16.4%{transform:translateX(-1224px)}17%{transform:translateX(-1326px)}21.1%{transform:translateX(-1530px)}24.1%{transform:translateX(-1836px)}24.2%{transform:translateX(-2040px)}47.4%{transform:translateX(-2142px)}48.4%{transform:translateX(-2244px)}49.3%{transform:translateX(-2346px)}50.4%{transform:translateX(-2448px)}51.4%{transform:translateX(-2550px)}52.3%{transform:translateX(-2652px)}53.3%{transform:translateX(-2754px)}54.3%{transform:translateX(-2856px)}55.3%{transform:translateX(-2958px)}56.3%{transform:translateX(-3060px)}57.3%{transform:translateX(-3162px)}58.3%{transform:translateX(-3264px)}59.3%{transform:translateX(-3366px)}60.3%{transform:translateX(-3468px)}61.3%{transform:translateX(-3570px)}62.3%{transform:translateX(-3774px)}63.3%{transform:translateX(-3876px)}64.3%{transform:translateX(-3978px)}65.3%{transform:translateX(-4080px)}66.3%{transform:translateX(-4182px)}67.3%{transform:translateX(-4284px)}68.3%{transform:translateX(-4386px)}69.3%{transform:translateX(-4488px)}70.2%{transform:translateX(-4590px)}71.2%{transform:translateX(-4692px)}72.3%{transform:translateX(-4794px)}73.2%{transform:translateX(-4896px)}74.2%{transform:translateX(-4998px)}75.2%{transform:translateX(-5100px)}76.2%{transform:translateX(-5202px)}77.2%{transform:translateX(-5304px)}78.2%{transform:translateX(-5406px)}79.2%{transform:translateX(-5508px)}80.2%{transform:translateX(-5610px)}81.2%{transform:translateX(-5712px)}82.2%{transform:translateX(-5814px)}83.2%{transform:translateX(-5916px)}84.2%{transform:translateX(-6018px)}93.6%{transform:translateX(-6120px)}94%{transform:translateX(-6528px)}to{transform:translateX(-6630px)}}.a{fill:#282d35}.c{fill:#71bef2}.d{fill:#d290e4}.e{fill:#6c6c6c}.f{fill:#a8cc8c}.g{fill:#afafaf}.h{fill:#b9c0cb}</style><g font-size="1.67" font-family="Monaco,Consolas,Menlo,'Bitstream Vera Sans Mono','Powerline Symbols',monospace"><defs><symbol id="1"><text y="1.67" class="c">~/go/src/github.com/vbauerster/mpb/examples/io/multiple</text></symbol><symbol id="2"><text y="1.67" class="d">❯</text></symbol><symbol id="3"><text y="1.67" class="c">~/go/src/github.com/vbauerster/mpb/examples/io/multiple</text><text x="56.112" y="1.67" class="e">master*</text></symbol><symbol id="4"><text y="1.67" class="d">❯</text><text x="2.004" y="1.67" class="f">go</text><text x="5.01" y="1.67" class="g">run</text><text x="9.018" y="1.67" class="g">-race</text><text x="15.03" y="1.67" class="g">main.go</text></symbol><symbol id="5"><text y="1.67" class="d">❯</text><text x="2.004" y="1.67" class="f">go</text><text x="5.01" y="1.67" class="h">run</text><path class="h" d="M8.016 0h1v2.171h-1z"/><text x="8.016" y="1.67" class="a"></text><text x="9.018" y="1.67" class="h">-race</text><text x="15.03" y="1.67" class="h">main.go</text></symbol><symbol id="6"><text y="1.67" class="d">❯</text><text x="2.004" y="1.67" class="f">go</text><text x="5.01" y="1.67" class="h">run</text><text x="9.018" y="1.67" class="h">-race</text><text x="15.03" y="1.67" fill="#b9c0cb" text-decoration="underline">main.go</text></symbol><symbol id="7"><text y="1.67" class="h">url1:</text><text x="6.012" y="1.67" class="h">166.3KiB</text><text x="15.03" y="1.67" class="h">/</text><text x="17.034" y="1.67" class="h">1.3MiB</text><text x="24.048" y="1.67" class="h">[=======&gt;------------------------------------------------------]</text><text x="89.178" y="1.67" class="h">8s</text></symbol><symbol id="8"><text y="1.67" class="h">url1:</text><text x="6.012" y="1.67" class="h">194.1KiB</text><text x="15.03" y="1.67" class="h">/</text><text x="17.034" y="1.67" class="h">1.3MiB</text><text x="24.048" y="1.67" class="h">[========&gt;-----------------------------------------------------]</text><text x="89.178" y="1.67" class="h">8s</text></symbol><symbol id="9"><text y="1.67" class="h">url2:</text><text x="8.016" y="1.67" class="h">1.0MiB</text><text x="15.03" y="1.67" class="h">/</text><text x="17.034" y="1.67" class="h">1.0MiB</text><text x="24.048" y="1.67" class="h">[==============================================================]</text><text x="89.178" y="1.67" class="h">0s</text></symbol><symbol id="10"><text y="1.67" class="h">url2:</text><text x="6.012" y="1.67" class="h">1.0MiB</text><text x="13.026" y="1.67" class="h">/</text><text x="15.03" y="1.67" class="h">1.0MiB</text><text x="22.044" y="1.67" class="h">[==============================================================]</text><text x="87.174" y="1.67" class="h">0s</text></symbol><symbol id="11"><text y="1.67" class="h">url1:</text><text x="6.012" y="1.67" class="h">1.3MiB</text><text x="13.026" y="1.67" class="h">/</text><text x="15.03" y="1.67" class="h">1.3MiB</text><text x="22.044" y="1.67" class="h">[==============================================================]</text><text x="87.174" y="1.67" class="h">0s</text></symbol><symbol id="12"><text y="1.67" class="c">~/go/src/github.com/vbauerster/mpb/examples/io/multiple</text><text x="56.112" y="1.67" class="e">master*</text><text x="64.128" y="1.67" fill="#dbab79">8s</text></symbol><symbol id="a"><path fill="transparent" d="M0 0h102v8H0z"/></symbol><symbol id="b"><path fill="#6f7683" d="M0 0h1.102v2.171H0z"/></symbol></defs><path class="a" d="M0 0h102v15.197H0z"/><g style="animation-duration:12.05828s;animation-iteration-count:infinite;animation-name:m;animation-timing-function:steps(1,end)"><svg width="6732"><svg><use xlink:href="#a"/><use xlink:href="#b" x="-.004"/></svg><svg x="102"><use xlink:href="#a"/><use xlink:href="#b" x="-.004"/></svg><svg x="204"><use xlink:href="#a"/><use xlink:href="#b" x=".996" y="4.317"/><use xlink:href="#1" y="2.171"/></svg><svg x="306"><use xlink:href="#a"/><use xlink:href="#b" x=".996" y="4.317"/><use xlink:href="#1" y="2.171"/></svg><svg x="408"><use xlink:href="#a"/><use xlink:href="#b" x="1.996" y="4.317"/><use xlink:href="#1" y="2.171"/><use xlink:href="#2" y="4.342"/></svg><svg x="510"><use xlink:href="#a"/><use xlink:href="#b" x="1.996" y="4.317"/><use xlink:href="#1" y="2.171"/><use xlink:href="#2" y="4.342"/></svg><svg x="612"><use xlink:href="#a"/><use xlink:href="#b" x="1.996" y="4.317"/><text y="3.841" class="c">~/go/src/github.com/vbauerster/mpb/examples/io/multiple</text><text x="56.112" y="3.841" class="e">master</text><use xlink:href="#2" y="4.342"/></svg><svg x="714"><use xlink:href="#a"/><use xlink:href="#b" x="1.996" y="4.317"/><use xlink:href="#3" y="2.171"/><use xlink:href="#2" y="4.342"/></svg><svg x="816"><use xlink:href="#a"/><use xlink:href="#b" x="2.996" y="4.317"/><use xlink:href="#3" y="2.171"/><text y="6.012" class="d">❯</text><text x="2.004" y="6.012" fill="#e88388" font-weight="700">g</text><text x="3.006" y="6.012" class="g">o</text><text x="5.01" y="6.012" class="g">run</text><text x="9.018" y="6.012" class="g">-race</text><text x="15.03" y="6.012" class="g">main.go</text></svg><svg x="918"><use xlink:href="#a"/><use xlink:href="#b" x="3.996" y="4.317"/><use xlink:href="#3" y="2.171"/><use xlink:href="#4" y="4.342"/></svg><svg x="1020"><use xlink:href="#a"/><use xlink:href="#b" x="4.996" y="4.317"/><use xlink:href="#3" y="2.171"/><use xlink:href="#4" y="4.342"/></svg><svg x="1122"><use xlink:href="#a"/><use xlink:href="#b" x="5.996" y="4.317"/><use xlink:href="#3" y="2.171"/><text y="6.012" class="d">❯</text><text x="2.004" y="6.012" class="f">go</text><text x="5.01" y="6.012" class="h">r</text><text x="6.012" y="6.012" class="g">un</text><text x="9.018" y="6.012" class="g">-race</text><text x="15.03" y="6.012" class="g">main.go</text></svg><svg x="1224"><use xlink:href="#a"/><use xlink:href="#b" x="6.996" y="4.317"/><use xlink:href="#3" y="2.171"/><text y="6.012" class="d">❯</text><text x="2.004" y="6.012" class="f">go</text><text x="5.01" y="6.012" class="h">ru</text><text x="7.014" y="6.012" class="g">n</text><text x="9.018" y="6.012" class="g">-race</text><text x="15.03" y="6.012" class="g">main.go</text></svg><svg x="1326"><use xlink:href="#a"/><use xlink:href="#b" x="7.996" y="4.317"/><use xlink:href="#3" y="2.171"/><text y="6.012" class="d">❯</text><text x="2.004" y="6.012" class="f">go</text><text x="5.01" y="6.012" class="h">run</text><text x="9.018" y="6.012" class="g">-race</text><text x="15.03" y="6.012" class="g">main.go</text></svg><svg x="1428"><use xlink:href="#a"/><use xlink:href="#b" x="21.996" y="4.317"/><use xlink:href="#3" y="2.171"/><use xlink:href="#5" y="4.342"/></svg><svg x="1530"><use xlink:href="#a"/><use xlink:href="#b" x="21.996" y="4.317"/><use xlink:href="#3" y="2.171"/><use xlink:href="#5" y="4.342"/></svg><svg x="1632"><use xlink:href="#a"/><use xlink:href="#b" x="21.996" y="4.317"/><use xlink:href="#3" y="2.171"/><use xlink:href="#6" y="4.342"/></svg><svg x="1734"><use xlink:href="#a"/><use xlink:href="#b" x="21.996" y="4.317"/><use xlink:href="#3" y="2.171"/><use xlink:href="#6" y="4.342"/></svg><svg x="1836"><use xlink:href="#a"/><use xlink:href="#b" x="21.996" y="4.317"/><use xlink:href="#3" y="2.171"/><use xlink:href="#6" y="4.342"/></svg><svg x="1938"><use xlink:href="#a"/><use xlink:href="#b" x="-.004" y="6.488"/><use xlink:href="#3" y="2.171"/><use xlink:href="#6" y="4.342"/></svg><svg x="2040"><use xlink:href="#a"/><use xlink:href="#b" x="-.004" y="6.488"/><use xlink:href="#3" y="2.171"/><use xlink:href="#6" y="4.342"/></svg><svg x="2142"><use xlink:href="#a"/><use xlink:href="#b" x="-.004" y="8.659"/><use xlink:href="#3" y="2.171"/><use xlink:href="#6" y="4.342"/><text y="8.183" class="h">url1:</text><text x="6.012" y="8.183" class="h">15.4KiB</text><text x="14.028" y="8.183" class="h">/</text><text x="16.032" y="8.183" class="h">1.3MiB</text><text x="23.046" y="8.183" class="h">[&gt;-------------------------------------------------------------]</text><text x="88.176" y="8.183" class="h">0s</text></svg><svg x="2244"><use xlink:href="#a"/><use xlink:href="#b" x="-.004" y="10.83"/><use xlink:href="#3" y="2.171"/><use xlink:href="#6" y="4.342"/><text y="8.183" class="h">url1:</text><text x="6.012" y="8.183" class="h">27.1KiB</text><text x="14.028" y="8.183" class="h">/</text><text x="16.032" y="8.183" class="h">1.3MiB</text><text x="23.046" y="8.183" class="h">[&gt;-------------------------------------------------------------]</text><text x="88.176" y="8.183" class="h">5s</text><text y="10.354" class="h">url2:</text><text x="6.012" y="10.354" class="h">15.4KiB</text><text x="14.028" y="10.354" class="h">/</text><text x="16.032" y="10.354" class="h">1.0MiB</text><text x="23.046" y="10.354" class="h">[&gt;-------------------------------------------------------------]</text><text x="88.176" y="10.354" class="h">0s</text></svg><svg x="2346"><use xlink:href="#a"/><use xlink:href="#b" x="-.004" y="10.83"/><use xlink:href="#3" y="2.171"/><use xlink:href="#6" y="4.342"/><text y="8.183" class="h">url1:</text><text x="6.012" y="8.183" class="h">43.1KiB</text><text x="14.028" y="8.183" class="h">/</text><text x="16.032" y="8.183" class="h">1.3MiB</text><text x="23.046" y="8.183" class="h">[=&gt;------------------------------------------------------------]</text><text x="88.176" y="8.183" class="h">4s</text><text y="10.354" class="h">url2:</text><text x="6.012" y="10.354" class="h">26.6KiB</text><text x="14.028" y="10.354" class="h">/</text><text x="16.032" y="10.354" class="h">1.0MiB</text><text x="23.046" y="10.354" class="h">[=&gt;------------------------------------------------------------]</text><text x="88.176" y="10.354" class="h">3s</text></svg><svg x="2448"><use xlink:href="#a"/><use xlink:href="#b" x="-.004" y="10.83"/><use xlink:href="#3" y="2.171"/><use xlink:href="#6" y="4.342"/><text y="8.183" class="h">url1:</text><text x="6.012" y="8.183" class="h">54.9KiB</text><text x="14.028" y="8.183" class="h">/</text><text x="16.032" y="8.183" class="h">1.3MiB</text><text x="23.046" y="8.183" class="h">[==&gt;-----------------------------------------------------------]</text><text x="88.176" y="8.183" class="h">8s</text><text y="10.354" class="h">url2:</text><text x="6.012" y="10.354" class="h">54.4KiB</text><text x="14.028" y="10.354" class="h">/</text><text x="16.032" y="10.354" class="h">1.0MiB</text><text x="23.046" y="10.354" class="h">[==&gt;-----------------------------------------------------------]</text><text x="88.176" y="10.354" class="h">3s</text></svg><svg x="2550"><use xlink:href="#a"/><use xlink:href="#b" x="-.004" y="10.83"/><use xlink:href="#3" y="2.171"/><use xlink:href="#6" y="4.342"/><text y="8.183" class="h">url1:</text><text x="6.012" y="8.183" class="h">70.9KiB</text><text x="14.028" y="8.183" class="h">/</text><text x="16.032" y="8.183" class="h">1.3MiB</text><text x="23.046" y="8.183" class="h">[==&gt;-----------------------------------------------------------]</text><text x="88.176" y="8.183" class="h">7s</text><text y="10.354" class="h">url2:</text><text x="6.012" y="10.354" class="h">70.4KiB</text><text x="14.028" y="10.354" class="h">/</text><text x="16.032" y="10.354" class="h">1.0MiB</text><text x="23.046" y="10.354" class="h">[===&gt;----------------------------------------------------------]</text><text x="88.176" y="10.354" class="h">5s</text></svg><svg x="2652"><use xlink:href="#a"/><use xlink:href="#b" x="-.004" y="10.83"/><use xlink:href="#3" y="2.171"/><use xlink:href="#6" y="4.342"/><text y="8.183" class="h">url1:</text><text x="6.012" y="8.183" class="h">98.8KiB</text><text x="14.028" y="8.183" class="h">/</text><text x="16.032" y="8.183" class="h">1.3MiB</text><text x="23.046" y="8.183" class="h">[====&gt;---------------------------------------------------------]</text><text x="88.176" y="8.183" class="h">8s</text><text y="10.354" class="h">url2:</text><text x="6.012" y="10.354" class="h">82.3KiB</text><text x="14.028" y="10.354" class="h">/</text><text x="16.032" y="10.354" class="h">1.0MiB</text><text x="23.046" y="10.354" class="h">[====&gt;---------------------------------------------------------]</text><text x="88.176" y="10.354" class="h">4s</text></svg><svg x="2754"><use xlink:href="#a"/><use xlink:href="#b" x="-.004" y="10.83"/><use xlink:href="#3" y="2.171"/><use xlink:href="#6" y="4.342"/><text y="8.183" class="h">url1:</text><text x="7.014" y="8.183" class="h">98.8KiB</text><text x="15.03" y="8.183" class="h">/</text><text x="17.034" y="8.183" class="h">1.3MiB</text><text x="24.048" y="8.183" class="h">[====&gt;---------------------------------------------------------]</text><text x="89.178" y="8.183" class="h">8s</text><text y="10.354" class="h">url2:</text><text x="6.012" y="10.354" class="h">110.1KiB</text><text x="15.03" y="10.354" class="h">/</text><text x="17.034" y="10.354" class="h">1.0MiB</text><text x="24.048" y="10.354" class="h">[======&gt;-------------------------------------------------------]</text><text x="89.178" y="10.354" class="h">4s</text></svg><svg x="2856"><use xlink:href="#a"/><use xlink:href="#b" x="-.004" y="10.83"/><use xlink:href="#3" y="2.171"/><use xlink:href="#6" y="4.342"/><text y="8.183" class="h">url1:</text><text x="6.012" y="8.183" class="h">110.6KiB</text><text x="15.03" y="8.183" class="h">/</text><text x="17.034" y="8.183" class="h">1.3MiB</text><text x="24.048" y="8.183" class="h">[====&gt;---------------------------------------------------------]</text><text x="89.178" y="8.183" class="h">11s</text><text y="10.354" class="h">url2:</text><text x="6.012" y="10.354" class="h">126.1KiB</text><text x="15.03" y="10.354" class="h">/</text><text x="17.034" y="10.354" class="h">1.0MiB</text><text x="24.048" y="10.354" class="h">[=======&gt;------------------------------------------------------]</text><text x="90.18" y="10.354" class="h">4s</text></svg><svg x="2958"><use xlink:href="#a"/><use xlink:href="#b" x="-.004" y="10.83"/><use xlink:href="#3" y="2.171"/><use xlink:href="#6" y="4.342"/><text y="8.183" class="h">url1:</text><text x="6.012" y="8.183" class="h">126.6KiB</text><text x="15.03" y="8.183" class="h">/</text><text x="17.034" y="8.183" class="h">1.3MiB</text><text x="24.048" y="8.183" class="h">[=====&gt;--------------------------------------------------------]</text><text x="89.178" y="8.183" class="h">11s</text><text y="10.354" class="h">url2:</text><text x="6.012" y="10.354" class="h">165.8KiB</text><text x="15.03" y="10.354" class="h">/</text><text x="17.034" y="10.354" class="h">1.0MiB</text><text x="24.048" y="10.354" class="h">[=========&gt;----------------------------------------------------]</text><text x="90.18" y="10.354" class="h">3s</text></svg><svg x="3060"><use xlink:href="#a"/><use xlink:href="#b" x="-.004" y="10.83"/><use xlink:href="#3" y="2.171"/><use xlink:href="#6" y="4.342"/><text y="8.183" class="h">url1:</text><text x="6.012" y="8.183" class="h">138.5KiB</text><text x="15.03" y="8.183" class="h">/</text><text x="17.034" y="8.183" class="h">1.3MiB</text><text x="24.048" y="8.183" class="h">[=====&gt;--------------------------------------------------------]</text><text x="89.178" y="8.183" class="h">10s</text><text y="10.354" class="h">url2:</text><text x="6.012" y="10.354" class="h">181.8KiB</text><text x="15.03" y="10.354" class="h">/</text><text x="17.034" y="10.354" class="h">1.0MiB</text><text x="24.048" y="10.354" class="h">[==========&gt;---------------------------------------------------]</text><text x="90.18" y="10.354" class="h">4s</text></svg><svg x="3162"><use xlink:href="#a"/><use xlink:href="#b" x="-.004" y="10.83"/><use xlink:href="#3" y="2.171"/><use xlink:href="#6" y="4.342"/><use xlink:href="#7" y="6.513"/><text y="10.354" class="h">url2:</text><text x="6.012" y="10.354" class="h">221.5KiB</text><text x="15.03" y="10.354" class="h">/</text><text x="17.034" y="10.354" class="h">1.0MiB</text><text x="24.048" y="10.354" class="h">[============&gt;-------------------------------------------------]</text><text x="89.178" y="10.354" class="h">3s</text></svg><svg x="3264"><use xlink:href="#a"/><use xlink:href="#b" x="-.004" y="10.83"/><use xlink:href="#3" y="2.171"/><use xlink:href="#6" y="4.342"/><use xlink:href="#7" y="6.513"/><text y="10.354" class="h">url2:</text><text x="6.012" y="10.354" class="h">249.3KiB</text><text x="15.03" y="10.354" class="h">/</text><text x="17.034" y="10.354" class="h">1.0MiB</text><text x="24.048" y="10.354" class="h">[==============&gt;-----------------------------------------------]</text><text x="89.178" y="10.354" class="h">3s</text></svg><svg x="3366"><use xlink:href="#a"/><use xlink:href="#b" x="-.004" y="10.83"/><use xlink:href="#3" y="2.171"/><use xlink:href="#6" y="4.342"/><use xlink:href="#8" y="6.513"/><text y="10.354" class="h">url2:</text><text x="6.012" y="10.354" class="h">277.1KiB</text><text x="15.03" y="10.354" class="h">/</text><text x="17.034" y="10.354" class="h">1.0MiB</text><text x="24.048" y="10.354" class="h">[================&gt;---------------------------------------------]</text><text x="89.178" y="10.354" class="h">3s</text></svg><svg x="3468"><use xlink:href="#a"/><use xlink:href="#b" x="-.004" y="10.83"/><use xlink:href="#3" y="2.171"/><use xlink:href="#6" y="4.342"/><use xlink:href="#8" y="6.513"/><text y="10.354" class="h">url2:</text><text x="6.012" y="10.354" class="h">305.0KiB</text><text x="15.03" y="10.354" class="h">/</text><text x="17.034" y="10.354" class="h">1.0MiB</text><text x="24.048" y="10.354" class="h">[=================&gt;--------------------------------------------]</text><text x="89.178" y="10.354" class="h">2s</text></svg><svg x="3570"><use xlink:href="#a"/><use xlink:href="#b" x="-.004" y="10.83"/><use xlink:href="#3" y="2.171"/><use xlink:href="#6" y="4.342"/><text y="8.183" class="h">url1:</text><text x="6.012" y="8.183" class="h">222.0KiB</text><text x="15.03" y="8.183" class="h">/</text><text x="17.034" y="8.183" class="h">1.3MiB</text><text x="24.048" y="8.183" class="h">[=========&gt;----------------------------------------------------]</text><text x="89.178" y="8.183" class="h">8s</text><text y="10.354" class="h">url2:</text><text x="6.012" y="10.354" class="h">332.8KiB</text><text x="15.03" y="10.354" class="h">/</text><text x="17.034" y="10.354" class="h">1.0MiB</text><text x="24.048" y="10.354" class="h">[===================&gt;------------------------------------------]</text><text x="89.178" y="10.354" class="h">2s</text></svg><svg x="3672"><use xlink:href="#a"/><use xlink:href="#b" x="-.004" y="6.488"/><use xlink:href="#3" y="2.171"/><use xlink:href="#6" y="4.342"/></svg><svg x="3774"><use xlink:href="#a"/><use xlink:href="#b" x="-.004" y="10.83"/><use xlink:href="#3" y="2.171"/><use xlink:href="#6" y="4.342"/><text y="8.183" class="h">url1:</text><text x="6.012" y="8.183" class="h">249.8KiB</text><text x="15.03" y="8.183" class="h">/</text><text x="17.034" y="8.183" class="h">1.3MiB</text><text x="24.048" y="8.183" class="h">[==========&gt;---------------------------------------------------]</text><text x="89.178" y="8.183" class="h">6s</text><text y="10.354" class="h">url2:</text><text x="6.012" y="10.354" class="h">388.5KiB</text><text x="15.03" y="10.354" class="h">/</text><text x="17.034" y="10.354" class="h">1.0MiB</text><text x="24.048" y="10.354" class="h">[======================&gt;---------------------------------------]</text><text x="89.178" y="10.354" class="h">1s</text></svg><svg x="3876"><use xlink:href="#a"/><use xlink:href="#b" x="-.004" y="10.83"/><use xlink:href="#3" y="2.171"/><use xlink:href="#6" y="4.342"/><text y="8.183" class="h">url1:</text><text x="6.012" y="8.183" class="h">265.8KiB</text><text x="15.03" y="8.183" class="h">/</text><text x="17.034" y="8.183" class="h">1.3MiB</text><text x="24.048" y="8.183" class="h">[===========&gt;--------------------------------------------------]</text><text x="89.178" y="8.183" class="h">7s</text><text y="10.354" class="h">url2:</text><text x="6.012" y="10.354" class="h">432.3KiB</text><text x="15.03" y="10.354" class="h">/</text><text x="17.034" y="10.354" class="h">1.0MiB</text><text x="24.048" y="10.354" class="h">[=========================&gt;------------------------------------]</text><text x="89.178" y="10.354" class="h">1s</text></svg><svg x="3978"><use xlink:href="#a"/><use xlink:href="#b" x="-.004" y="10.83"/><use xlink:href="#3" y="2.171"/><use xlink:href="#6" y="4.342"/><text y="8.183" class="h">url1:</text><text x="6.012" y="8.183" class="h">293.6KiB</text><text x="15.03" y="8.183" class="h">/</text><text x="17.034" y="8.183" class="h">1.3MiB</text><text x="24.048" y="8.183" class="h">[============&gt;-------------------------------------------------]</text><text x="89.178" y="8.183" class="h">6s</text><text y="10.354" class="h">url2:</text><text x="6.012" y="10.354" class="h">499.8KiB</text><text x="15.03" y="10.354" class="h">/</text><text x="17.034" y="10.354" class="h">1.0MiB</text><text x="24.048" y="10.354" class="h">[=============================&gt;--------------------------------]</text><text x="89.178" y="10.354" class="h">0s</text></svg><svg x="4080"><use xlink:href="#a"/><use xlink:href="#b" x="-.004" y="10.83"/><use xlink:href="#3" y="2.171"/><use xlink:href="#6" y="4.342"/><text y="8.183" class="h">url1:</text><text x="6.012" y="8.183" class="h">305.5KiB</text><text x="15.03" y="8.183" class="h">/</text><text x="17.034" y="8.183" class="h">1.3MiB</text><text x="24.048" y="8.183" class="h">[=============&gt;------------------------------------------------]</text><text x="89.178" y="8.183" class="h">5s</text><text y="10.354" class="h">url2:</text><text x="6.012" y="10.354" class="h">555.5KiB</text><text x="15.03" y="10.354" class="h">/</text><text x="17.034" y="10.354" class="h">1.0MiB</text><text x="24.048" y="10.354" class="h">[=================================&gt;----------------------------]</text><text x="89.178" y="10.354" class="h">1s</text></svg><svg x="4182"><use xlink:href="#a"/><use xlink:href="#b" x="-.004" y="10.83"/><use xlink:href="#3" y="2.171"/><use xlink:href="#6" y="4.342"/><text y="8.183" class="h">url1:</text><text x="6.012" y="8.183" class="h">333.3KiB</text><text x="15.03" y="8.183" class="h">/</text><text x="17.034" y="8.183" class="h">1.3MiB</text><text x="24.048" y="8.183" class="h">[==============&gt;-----------------------------------------------]</text><text x="89.178" y="8.183" class="h">5s</text><text y="10.354" class="h">url2:</text><text x="6.012" y="10.354" class="h">611.2KiB</text><text x="15.03" y="10.354" class="h">/</text><text x="17.034" y="10.354" class="h">1.0MiB</text><text x="24.048" y="10.354" class="h">[====================================&gt;-------------------------]</text><text x="89.178" y="10.354" class="h">0s</text></svg><svg x="4284"><use xlink:href="#a"/><use xlink:href="#b" x="-.004" y="10.83"/><use xlink:href="#3" y="2.171"/><use xlink:href="#6" y="4.342"/><text y="8.183" class="h">url1:</text><text x="6.012" y="8.183" class="h">349.3KiB</text><text x="15.03" y="8.183" class="h">/</text><text x="17.034" y="8.183" class="h">1.3MiB</text><text x="24.048" y="8.183" class="h">[===============&gt;----------------------------------------------]</text><text x="89.178" y="8.183" class="h">6s</text><text y="10.354" class="h">url2:</text><text x="6.012" y="10.354" class="h">666.8KiB</text><text x="15.03" y="10.354" class="h">/</text><text x="17.034" y="10.354" class="h">1.0MiB</text><text x="24.048" y="10.354" class="h">[=======================================&gt;----------------------]</text><text x="89.178" y="10.354" class="h">0s</text></svg><svg x="4386"><use xlink:href="#a"/><use xlink:href="#b" x="-.004" y="10.83"/><use xlink:href="#3" y="2.171"/><use xlink:href="#6" y="4.342"/><text y="8.183" class="h">url1:</text><text x="6.012" y="8.183" class="h">361.1KiB</text><text x="15.03" y="8.183" class="h">/</text><text x="17.034" y="8.183" class="h">1.3MiB</text><text x="24.048" y="8.183" class="h">[===============&gt;----------------------------------------------]</text><text x="89.178" y="8.183" class="h">6s</text><text y="10.354" class="h">url2:</text><text x="6.012" y="10.354" class="h">722.5KiB</text><text x="15.03" y="10.354" class="h">/</text><text x="17.034" y="10.354" class="h">1.0MiB</text><text x="24.048" y="10.354" class="h">[===========================================&gt;------------------]</text><text x="89.178" y="10.354" class="h">0s</text></svg><svg x="4488"><use xlink:href="#a"/><use xlink:href="#b" x="-.004" y="10.83"/><use xlink:href="#3" y="2.171"/><use xlink:href="#6" y="4.342"/><text y="8.183" class="h">url1:</text><text x="6.012" y="8.183" class="h">389.0KiB</text><text x="15.03" y="8.183" class="h">/</text><text x="17.034" y="8.183" class="h">1.3MiB</text><text x="24.048" y="8.183" class="h">[=================&gt;--------------------------------------------]</text><text x="89.178" y="8.183" class="h">5s</text><text y="10.354" class="h">url2:</text><text x="6.012" y="10.354" class="h">778.2KiB</text><text x="15.03" y="10.354" class="h">/</text><text x="17.034" y="10.354" class="h">1.0MiB</text><text x="24.048" y="10.354" class="h">[==============================================&gt;---------------]</text><text x="89.178" y="10.354" class="h">0s</text></svg><svg x="4590"><use xlink:href="#a"/><use xlink:href="#b" x="-.004" y="10.83"/><use xlink:href="#3" y="2.171"/><use xlink:href="#6" y="4.342"/><text y="8.183" class="h">url1:</text><text x="6.012" y="8.183" class="h">416.8KiB</text><text x="15.03" y="8.183" class="h">/</text><text x="17.034" y="8.183" class="h">1.3MiB</text><text x="24.048" y="8.183" class="h">[==================&gt;-------------------------------------------]</text><text x="89.178" y="8.183" class="h">5s</text><text y="10.354" class="h">url2:</text><text x="6.012" y="10.354" class="h">849.8KiB</text><text x="15.03" y="10.354" class="h">/</text><text x="17.034" y="10.354" class="h">1.0MiB</text><text x="24.048" y="10.354" class="h">[==================================================&gt;-----------]</text><text x="89.178" y="10.354" class="h">0s</text></svg><svg x="4692"><use xlink:href="#a"/><use xlink:href="#b" x="-.004" y="10.83"/><use xlink:href="#3" y="2.171"/><use xlink:href="#6" y="4.342"/><text y="8.183" class="h">url1:</text><text x="6.012" y="8.183" class="h">444.7KiB</text><text x="15.03" y="8.183" class="h">/</text><text x="17.034" y="8.183" class="h">1.3MiB</text><text x="24.048" y="8.183" class="h">[===================&gt;------------------------------------------]</text><text x="89.178" y="8.183" class="h">4s</text><text y="10.354" class="h">url2:</text><text x="6.012" y="10.354" class="h">905.5KiB</text><text x="15.03" y="10.354" class="h">/</text><text x="17.034" y="10.354" class="h">1.0MiB</text><text x="24.048" y="10.354" class="h">[======================================================&gt;-------]</text><text x="89.178" y="10.354" class="h">0s</text></svg><svg x="4794"><use xlink:href="#a"/><use xlink:href="#b" x="-.004" y="10.83"/><use xlink:href="#3" y="2.171"/><use xlink:href="#6" y="4.342"/><text y="8.183" class="h">url1:</text><text x="7.014" y="8.183" class="h">472.5KiB</text><text x="16.032" y="8.183" class="h">/</text><text x="18.036" y="8.183" class="h">1.3MiB</text><text x="25.05" y="8.183" class="h">[====================&gt;-----------------------------------------]</text><text x="90.18" y="8.183" class="h">4s</text><text y="10.354" class="h">url2:</text><text x="6.012" y="10.354" class="h">1000.9KiB</text><text x="16.032" y="10.354" class="h">/</text><text x="18.036" y="10.354" class="h">1.0MiB</text><text x="25.05" y="10.354" class="h">[===========================================================&gt;--]</text><text x="90.18" y="10.354" class="h">0s</text></svg><svg x="4896"><use xlink:href="#a"/><use xlink:href="#b" x="-.004" y="10.83"/><use xlink:href="#3" y="2.171"/><use xlink:href="#6" y="4.342"/><text y="8.183" class="h">url1:</text><text x="6.012" y="8.183" class="h">500.3KiB</text><text x="15.03" y="8.183" class="h">/</text><text x="17.034" y="8.183" class="h">1.3MiB</text><text x="24.048" y="8.183" class="h">[======================&gt;---------------------------------------]</text><text x="89.178" y="8.183" class="h">3s</text><use xlink:href="#9" y="8.684"/></svg><svg x="4998"><use xlink:href="#a"/><use xlink:href="#b" x="-.004" y="10.83"/><use xlink:href="#3" y="2.171"/><use xlink:href="#6" y="4.342"/><text y="8.183" class="h">url1:</text><text x="6.012" y="8.183" class="h">556.0KiB</text><text x="15.03" y="8.183" class="h">/</text><text x="17.034" y="8.183" class="h">1.3MiB</text><text x="24.048" y="8.183" class="h">[========================&gt;-------------------------------------]</text><text x="89.178" y="8.183" class="h">2s</text><use xlink:href="#9" y="8.684"/></svg><svg x="5100"><use xlink:href="#a"/><use xlink:href="#b" x="-.004" y="10.83"/><use xlink:href="#3" y="2.171"/><use xlink:href="#6" y="4.342"/><text y="8.183" class="h">url1:</text><text x="6.012" y="8.183" class="h">627.7KiB</text><text x="15.03" y="8.183" class="h">/</text><text x="17.034" y="8.183" class="h">1.3MiB</text><text x="24.048" y="8.183" class="h">[===========================&gt;----------------------------------]</text><text x="89.178" y="8.183" class="h">1s</text><use xlink:href="#9" y="8.684"/></svg><svg x="5202"><use xlink:href="#a"/><use xlink:href="#b" x="-.004" y="10.83"/><use xlink:href="#3" y="2.171"/><use xlink:href="#6" y="4.342"/><text y="8.183" class="h">url1:</text><text x="6.012" y="8.183" class="h">711.2KiB</text><text x="15.03" y="8.183" class="h">/</text><text x="17.034" y="8.183" class="h">1.3MiB</text><text x="24.048" y="8.183" class="h">[===============================&gt;------------------------------]</text><text x="89.178" y="8.183" class="h">0s</text><use xlink:href="#9" y="8.684"/></svg><svg x="5304"><use xlink:href="#a"/><use xlink:href="#b" x="-.004" y="10.83"/><use xlink:href="#3" y="2.171"/><use xlink:href="#6" y="4.342"/><text y="8.183" class="h">url1:</text><text x="6.012" y="8.183" class="h">822.5KiB</text><text x="15.03" y="8.183" class="h">/</text><text x="17.034" y="8.183" class="h">1.3MiB</text><text x="24.048" y="8.183" class="h">[====================================&gt;-------------------------]</text><text x="89.178" y="8.183" class="h">0s</text><use xlink:href="#9" y="8.684"/></svg><svg x="5406"><use xlink:href="#a"/><use xlink:href="#b" x="-.004" y="10.83"/><use xlink:href="#3" y="2.171"/><use xlink:href="#6" y="4.342"/><text y="8.183" class="h">url1:</text><text x="6.012" y="8.183" class="h">917.9KiB</text><text x="15.03" y="8.183" class="h">/</text><text x="17.034" y="8.183" class="h">1.3MiB</text><text x="24.048" y="8.183" class="h">[========================================&gt;---------------------]</text><text x="89.178" y="8.183" class="h">0s</text><use xlink:href="#9" y="8.684"/></svg><svg x="5508"><use xlink:href="#a"/><use xlink:href="#b" x="-.004" y="10.83"/><use xlink:href="#3" y="2.171"/><use xlink:href="#6" y="4.342"/><text y="8.183" class="h">url1:</text><text x="6.012" y="8.183" class="h">1.0MiB</text><text x="13.026" y="8.183" class="h">/</text><text x="15.03" y="8.183" class="h">1.3MiB</text><text x="22.044" y="8.183" class="h">[==============================================&gt;---------------]</text><text x="87.174" y="8.183" class="h">0s</text><use xlink:href="#10" y="8.684"/></svg><svg x="5610"><use xlink:href="#a"/><use xlink:href="#b" x="-.004" y="10.83"/><use xlink:href="#3" y="2.171"/><use xlink:href="#6" y="4.342"/><text y="8.183" class="h">url1:</text><text x="6.012" y="8.183" class="h">1.1MiB</text><text x="13.026" y="8.183" class="h">/</text><text x="15.03" y="8.183" class="h">1.3MiB</text><text x="22.044" y="8.183" class="h">[=================================================&gt;------------]</text><text x="87.174" y="8.183" class="h">0s</text><use xlink:href="#10" y="8.684"/></svg><svg x="5712"><use xlink:href="#a"/><use xlink:href="#b" x="-.004" y="10.83"/><use xlink:href="#3" y="2.171"/><use xlink:href="#6" y="4.342"/><text y="8.183" class="h">url1:</text><text x="6.012" y="8.183" class="h">1.2MiB</text><text x="13.026" y="8.183" class="h">/</text><text x="15.03" y="8.183" class="h">1.3MiB</text><text x="22.044" y="8.183" class="h">[======================================================&gt;-------]</text><text x="87.174" y="8.183" class="h">0s</text><use xlink:href="#10" y="8.684"/></svg><svg x="5814"><use xlink:href="#a"/><use xlink:href="#b" x="-.004" y="10.83"/><use xlink:href="#3" y="2.171"/><use xlink:href="#6" y="4.342"/><text y="8.183" class="h">url1:</text><text x="6.012" y="8.183" class="h">1.2MiB</text><text x="13.026" y="8.183" class="h">/</text><text x="15.03" y="8.183" class="h">1.3MiB</text><text x="22.044" y="8.183" class="h">[=========================================================&gt;----]</text><text x="87.174" y="8.183" class="h">0s</text><use xlink:href="#10" y="8.684"/></svg><svg x="5916"><use xlink:href="#a"/><use xlink:href="#b" x="-.004" y="10.83"/><use xlink:href="#3" y="2.171"/><use xlink:href="#6" y="4.342"/><use xlink:href="#11" y="6.513"/><use xlink:href="#10" y="8.684"/></svg><svg x="6018"><use xlink:href="#a"/><use xlink:href="#b" x="-.004" y="10.83"/><use xlink:href="#3" y="2.171"/><use xlink:href="#6" y="4.342"/><use xlink:href="#11" y="6.513"/><use xlink:href="#10" y="8.684"/></svg><svg x="6120"><use xlink:href="#a"/><use xlink:href="#b" x="-.004" y="10.83"/><use xlink:href="#3" y="2.171"/><use xlink:href="#6" y="4.342"/><use xlink:href="#11" y="6.513"/><use xlink:href="#10" y="8.684"/></svg><svg x="6222"><use xlink:href="#a"/><use xlink:href="#b" x="1.996" y="15.172"/><use xlink:href="#3" y="2.171"/><use xlink:href="#6" y="4.342"/><use xlink:href="#11" y="6.513"/><use xlink:href="#10" y="8.684"/><use xlink:href="#12" y="13.026"/><use xlink:href="#2" y="15.197"/></svg><svg x="6324"><use xlink:href="#a"/><use xlink:href="#b" x="1.996" y="15.172"/><use xlink:href="#3" y="2.171"/><use xlink:href="#6" y="4.342"/><use xlink:href="#11" y="6.513"/><use xlink:href="#10" y="8.684"/><use xlink:href="#12" y="13.026"/><use xlink:href="#2" y="15.197"/></svg><svg x="6426"><use xlink:href="#a"/><use xlink:href="#b" x="1.996" y="15.172"/><use xlink:href="#3" y="2.171"/><use xlink:href="#6" y="4.342"/><use xlink:href="#11" y="6.513"/><use xlink:href="#10" y="8.684"/><use xlink:href="#12" y="13.026"/><use xlink:href="#2" y="15.197"/></svg><svg x="6528"><use xlink:href="#a"/><use xlink:href="#b" x="1.996" y="15.172"/><use xlink:href="#3" y="2.171"/><use xlink:href="#6" y="4.342"/><use xlink:href="#11" y="6.513"/><use xlink:href="#10" y="8.684"/><use xlink:href="#12" y="13.026"/><use xlink:href="#2" y="15.197"/></svg><svg x="6630"><use xlink:href="#a"/><use xlink:href="#b" x="-.004" y="15.172"/><use xlink:href="#3"/><use xlink:href="#6" y="2.171"/><use xlink:href="#11" y="4.342"/><use xlink:href="#10" y="6.513"/><use xlink:href="#12" y="10.855"/><use xlink:href="#2" y="13.026"/></svg></svg></g></g></svg></svg>