<svg xmlns="http://www.w3.org/2000/svg" xmlns:xlink="http://www.w3.org/1999/xlink" width="1100" height="151.97"><rect width="1100" height="151.97" rx="0" ry="0" class="a"/><svg height="151.97" viewBox="0 0 110 15.197" width="1100" xmlns="http://www.w3.org/2000/svg" xmlns:xlink="http://www.w3.org/1999/xlink"><style>@keyframes m{0%{transform:translateX(0)}3.2%{transform:translateX(-440px)}3.3%{transform:translateX(-550px)}3.6%{transform:translateX(-660px)}3.7%{transform:translateX(-770px)}11.2%{transform:translateX(-880px)}12.3%{transform:translateX(-990px)}13.3%{transform:translateX(-1100px)}14.7%{transform:translateX(-1210px)}16.4%{transform:translateX(-1320px)}17%{transform:translateX(-1430px)}21.1%{transform:translateX(-1650px)}24.1%{transform:translateX(-1980px)}24.2%{transform:translateX(-2200px)}47.4%{transform:translateX(-2310px)}48.4%{transform:translateX(-2420px)}49.3%{transform:translateX(-2530px)}50.4%{transform:translateX(-2640px)}51.4%{transform:translateX(-2750px)}52.3%{transform:translateX(-2860px)}53.3%{transform:translateX(-2970px)}54.3%{transform:translateX(-3080px)}55.3%{transform:translateX(-3190px)}56.3%{transform:translateX(-3300px)}57.3%{transform:translateX(-3410px)}58.3%{transform:translateX(-3520px)}59.3%{transform:translateX(-3630px)}60.3%{transform:translateX(-3740px)}61.3%{transform:translateX(-3850px)}62.3%{transform:translateX(-4070px)}63.3%{transform:translateX(-4180px)}64.3%{transform:translateX(-4290px)}65.3%{transform:translateX(-4400px)}66.3%{transform:translateX(-4510px)}67.3%{transform:translateX(-4620px)}68.3%{transform:translateX(-4730px)}69.3%{transform:translateX(-4840px)}70.2%{transform:translateX(-4950px)}71.2%{transform:translateX(-5060px)}72.3%{transform:translateX(-5170px)}73.2%{transform:translateX(-5280px)}74.2%{transform:translateX(-5390px)}75.2%{transform:translateX(-5500px)}76.2%{transform:translateX(-5610px)}77.2%{transform:translateX(-5720px)}78.2%{transform:translateX(-5830px)}79.2%{transform:translateX(-5940px)}80.2%{transform:translateX(-6050px)}81.2%{transform:translateX(-6160px)}82.2%{transform:translateX(-6270px)}83.2%{transform:translateX(-6380px)}84.2%{transform:translateX(-6490px)}93.6%{transform:translateX(-6600px)}94%{transform:translateX(-7040px)}to{transform:translateX(-7150px)}}.a{fill:#282d35}.c{fill:#71bef2}.d{fill:#d290e4}.e{fill:#6c6c6c}.f{fill:#a8cc8c}.g{fill:#afafaf}.h{fill:#b9c0cb}</style><g font-size="1.67" font-family="Monaco,Consolas,Menlo,'Bitstream Vera Sans Mono','Powerline Symbols',monospace"><defs><symbol id="1"><text y="1.67" class="c">~/go/src/github.com/vbauerster/mpb/examples/io/multiple</text></symbol><symbol id="2"><text y="1.67" class="d">❯</text></symbol><symbol id="3"><text y="1.67" class="c">~/go/src/github.com/vbauerster/mpb/examples/io/multiple</text><text x="56.112" y="1.67" class="e">master*</text></symbol><symbol id="4"><text y="1.67" class="d">❯</text><text x="2.004" y="1.67" class="f">go</text><text x="5.01" y="1.67" class="g">run</text><text x="9.018" y="1.67" class="g">-race</text><text x="15.03" y="1.67" class="g">main.go</text></symbol><symbol id="5"><text y="1.67" class="d">❯</text><text x="2.004" y="1.67" class="f">go</text><text x="5.01" y="1.67" class="h">run</text><path class="h" d="M8.016 0h1v2.171h-1z"/><text x="8.016" y="1.67" class="a"></text><text x="9.018" y="1.67" class="h">-race</text><text x="15.03" y="1.67" class="h">main.go</text></symbol><symbol id="6"><text y="1.67" class="d">❯</text><text x="2.004" y="1.67" class="f">go</text><text x="5.01" y="1.67" class="h">run</text><text x="9.018" y="1.67" class="h">-race</text><text x="15.03" y="1.67" fill="#b9c0cb" text-decoration="underline">main.go</text></symbol><symbol id="7"><text y="1.67" class="h">url1:</text><text x="6.012" y="1.67" class="h">166.3KiB</text><text x="15.03" y="1.67" class="h">/</text><text x="17.034" y="1.67" class="h">1.3MiB</text><text x="24.048" y="1.67" class="h">[=======&gt;------------------------------------------------------]</text><text x="89.178" y="1.67" class="h">8s</text></symbol><symbol id="8"><text y="1.67" class="h">url1:</text><text x="6.012" y="1.67" class="h">194.1KiB</text><text x="15.03" y="1.67" class="h">/</text><text x="17.034" y="1.67" class="h">1.3MiB</text><text x="24.048" y="1.67" class="h">[========&gt;-----------------------------------------------------]</text><text x="89.178" y="1.67" class="h">8s</text></symbol><symbol id="9"><text y="1.67" class="h">url2:</text><text x="8.016" y="1.67" class="h">1.0MiB</text><text x="15.03" y="1.67" class="h">/</text><text x="17.034" y="1.67" class="h">1.0MiB</text><text x="24.048" y="1.67" class="h">[==============================================================]</text><text x="89.178" y="1.67" class="h">0s</text></symbol><symbol id="10"><text y="1.67" class="h">url2:</text><text x="6.012" y="1.67" class="h">1.0MiB</text><text x="13.026" y="1.67" class="h">/</text><text x="15.03" y="1.67" class="h">1.0MiB</text><text x="22.044" y="1.67" class="h">[==============================================================]</text><text x="87.174" y="1.67" class="h">0s</text></symbol><symbol id="11"><text y="1.67" class="h">url1:</text><text x="6.012" y="1.67" class="h">1.3MiB</text><text x="13.026" y="1.67" class="h">/</text><text x="15.03" y="1.67" class="h">1.3MiB</text><text x="22.044" y="1.67" class="h">[==============================================================]</text><text x="87.174" y="1.67" class="h">0s</text></symbol><symbol id="12"><text y="1.67" class="c">~/go/src/github.com/vbauerster/mpb/examples/io/multiple</text><text x="56.112" y="1.67" class="e">master*</text><text x="64.128" y="1.67" fill="#dbab79">8s</text></symbol><symbol id="a"><path fill="transparent" d="M0 0h110v8H0z"/></symbol><symbol id="b"><path fill="#6f7683" d="M0 0h1.102v2.171H0z"/></symbol></defs><path class="a" d="M0 0h110v15.197H0z"/><g style="animation-duration:12.05828s;animation-iteration-count:infinite;animation-name:m;animation-timing-function:steps(1,end)"><svg width="7260"><svg><use xlink:href="#a"/><use xlink:href="#b" x="-.004"/></svg><svg x="110"><use xlink:href="#a"/><use xlink:href="#b" x="-.004"/></svg><svg x="220"><use xlink:href="#a"/><use xlink:href="#b" x=".996" y="4.317"/><use xlink:href="#1" y="2.171"/></svg><svg x="330"><use xlink:href="#a"/><use xlink:href="#b" x=".996" y="4.317"/><use xlink:href="#1" y="2.171"/></svg><svg x="440"><use xlink:href="#a"/><use xlink:href="#b" x="1.996" y="4.317"/><use xlink:href="#1" y="2.171"/><use xlink:href="#2" y="4.342"/></svg><svg x="550"><use xlink:href="#a"/><use xlink:href="#b" x="1.996" y="4.317"/><use xlink:href="#1" y="2.171"/><use xlink:href="#2" y="4.342"/></svg><svg x="660"><use xlink:href="#a"/><use xlink:href="#b" x="1.996" y="4.317"/><text y="3.841" class="c">~/go/src/github.com/vbauerster/mpb/examples/io/multiple</text><text x="56.112" y="3.841" class="e">master</text><use xlink:href="#2" y="4.342"/></svg><svg x="770"><use xlink:href="#a"/><use xlink:href="#b" x="1.996" y="4.317"/><use xlink:href="#3" y="2.171"/><use xlink:href="#2" y="4.342"/></svg><svg x="880"><use xlink:href="#a"/><use xlink:href="#b" x="2.996" y="4.317"/><use xlink:href="#3" y="2.171"/><text y="6.012" class="d">❯</text><text x="2.004" y="6.012" fill="#e88388" font-weight="700">g</text><text x="3.006" y="6.012" class="g">o</text><text x="5.01" y="6.012" class="g">run</text><text x="9.018" y="6.012" class="g">-race</text><text x="15.03" y="6.012" class="g">main.go</text></svg><svg x="990"><use xlink:href="#a"/><use xlink:href="#b" x="3.996" y="4.317"/><use xlink:href="#3" y="2.171"/><use xlink:href="#4" y="4.342"/></svg><svg x="1100"><use xlink:href="#a"/><use xlink:href="#b" x="4.996" y="4.317"/><use xlink:href="#3" y="2.171"/><use xlink:href="#4" y="4.342"/></svg><svg x="1210"><use xlink:href="#a"/><use xlink:href="#b" x="5.996" y="4.317"/><use xlink:href="#3" y="2.171"/><text y="6.012" class="d">❯</text><text x="2.004" y="6.012" class="f">go</text><text x="5.01" y="6.012" class="h">r</text><text x="6.012" y="6.012" class="g">un</text><text x="9.018" y="6.012" class="g">-race</text><text x="15.03" y="6.012" class="g">main.go</text></svg><svg x="1320"><use xlink:href="#a"/><use xlink:href="#b" x="6.996" y="4.317"/><use xlink:href="#3" y="2.171"/><text y="6.012" class="d">❯</text><text x="2.004" y="6.012" class="f">go</text><text x="5.01" y="6.012" class="h">ru</text><text x="7.014" y="6.012" class="g">n</text><text x="9.018" y="6.012" class="g">-race</text><text x="15.03" y="6.012" class="g">main.go</text></svg><svg x="1430"><use xlink:href="#a"/><use xlink:href="#b" x="7.996" y="4.317"/><use xlink:href="#3" y="2.171"/><text y="6.012" class="d">❯</text><text x="2.004" y="6.012" class="f">go</text><text x="5.01" y="6.012" class="h">run</text><text x="9.018" y="6.012" class="g">-race</text><text x="15.03" y="6.012" class="g">main.go</text></svg><svg x="1540"><use xlink:href="#a"/><use xlink:href="#b" x="21.996" y="4.317"/><use xlink:href="#3" y="2.171"/><use xlink:href="#5" y="4.342"/></svg><svg x="1650"><use xlink:href="#a"/><use xlink:href="#b" x="21.996" y="4.317"/><use xlink:href="#3" y="2.171"/><use xlink:href="#5" y="4.342"/></svg><svg x="1760"><use xlink:href="#a"/><use xlink:href="#b" x="21.996" y="4.317"/><use xlink:href="#3" y="2.171"/><use xlink:href="#6" y="4.342"/></svg><svg x="1870"><use xlink:href="#a"/><use xlink:href="#b" x="21.996" y="4.317"/><use xlink:href="#3" y="2.171"/><use xlink:href="#6" y="4.342"/></svg><svg x="1980"><use xlink:href="#a"/><use xlink:href="#b" x="21.996" y="4.317"/><use xlink:href="#3" y="2.171"/><use xlink:href="#6" y="4.342"/></svg><svg x="2090"><use xlink:href="#a"/><use xlink:href="#b" x="-.004" y="6.488"/><use xlink:href="#3" y="2.171"/><use xlink:href="#6" y="4.342"/></svg><svg x="2200"><use xlink:href="#a"/><use xlink:href="#b" x="-.004" y="6.488"/><use xlink:href="#3" y="2.171"/><use xlink:href="#6" y="4.342"/></svg><svg x="2310"><use xlink:href="#a"/><use xlink:href="#b" x="-.004" y="8.659"/><use xlink:href="#3" y="2.171"/><use xlink:href="#6" y="4.342"/><text y="8.183" class="h">url1:</text><text x="6.012" y="8.183" class="h">15.4KiB</text><text x="14.028" y="8.183" class="h">/</text><text x="16.032" y="8.183" class="h">1.3MiB</text><text x="23.046" y="8.183" class="h">[&gt;-------------------------------------------------------------]</text><text x="88.176" y="8.183" class="h">0s</text></svg><svg x="2420"><use xlink:href="#a"/><use xlink:href="#b" x="-.004" y="10.83"/><use xlink:href="#3" y="2.171"/><use xlink:href="#6" y="4.342"/><text y="8.183" class="h">url1:</text><text x="6.012" y="8.183" class="h">27.1KiB</text><text x="14.028" y="8.183" class="h">/</text><text x="16.032" y="8.183" class="h">1.3MiB</text><text x="23.046" y="8.183" class="h">[&gt;-------------------------------------------------------------]</text><text x="88.176" y="8.183" class="h">5s</text><text y="10.354" class="h">url2:</text><text x="6.012" y="10.354" class="h">15.4KiB</text><text x="14.028" y="10.354" class="h">/</text><text x="16.032" y="10.354" class="h">1.0MiB</text><text x="23.046" y="10.354" class="h">[&gt;-------------------------------------------------------------]</text><text x="88.176" y="10.354" class="h">0s</text></svg><svg x="2530"><use xlink:href="#a"/><use xlink:href="#b" x="-.004" y="10.83"/><use xlink:href="#3" y="2.171"/><use xlink:href="#6" y="4.342"/><text y="8.183" class="h">url1:</text><text x="6.012" y="8.183" class="h">43.1KiB</text><text x="14.028" y="8.183" class="h">/</text><text x="16.032" y="8.183" class="h">1.3MiB</text><text x="23.046" y="8.183" class="h">[=&gt;------------------------------------------------------------]</text><text x="88.176" y="8.183" class="h">4s</text><text y="10.354" class="h">url2:</text><text x="6.012" y="10.354" class="h">26.6KiB</text><text x="14.028" y="10.354" class="h">/</text><text x="16.032" y="10.354" class="h">1.0MiB</text><text x="23.046" y="10.354" class="h">[=&gt;------------------------------------------------------------]</text><text x="88.176" y="10.354" class="h">3s</text></svg><svg x="2640"><use xlink:href="#a"/><use xlink:href="#b" x="-.004" y="10.83"/><use xlink:href="#3" y="2.171"/><use xlink:href="#6" y="4.342"/><text y="8.183" class="h">url1:</text><text x="6.012" y="8.183" class="h">54.9KiB</text><text x="14.028" y="8.183" class="h">/</text><text x="16.032" y="8.183" class="h">1.3MiB</text><text x="23.046" y="8.183" class="h">[==&gt;-----------------------------------------------------------]</text><text x="88.176" y="8.183" class="h">8s</text><text y="10.354" class="h">url2:</text><text x="6.012" y="10.354" class="h">54.4KiB</text><text x="14.028" y="10.354" class="h">/</text><text x="16.032" y="10.354" class="h">1.0MiB</text><text x="23.046" y="10.354" class="h">[==&gt;-----------------------------------------------------------]</text><text x="88.176" y="10.354" class="h">3s</text></svg><svg x="2750"><use xlink:href="#a"/><use xlink:href="#b" x="-.004" y="10.83"/><use xlink:href="#3" y="2.171"/><use xlink:href="#6" y="4.342"/><text y="8.183" class="h">url1:</text><text x="6.012" y="8.183" class="h">70.9KiB</text><text x="14.028" y="8.183" class="h">/</text><text x="16.032" y="8.183" class="h">1.3MiB</text><text x="23.046" y="8.183" class="h">[==&gt;-----------------------------------------------------------]</text><text x="88.176" y="8.183" class="h">7s</text><text y="10.354" class="h">url2:</text><text x="6.012" y="10.354" class="h">70.4KiB</text><text x="14.028" y="10.354" class="h">/</text><text x="16.032" y="10.354" class="h">1.0MiB</text><text x="23.046" y="10.354" class="h">[===&gt;----------------------------------------------------------]</text><text x="88.176" y="10.354" class="h">5s</text></svg><svg x="2860"><use xlink:href="#a"/><use xlink:href="#b" x="-.004" y="10.83"/><use xlink:href="#3" y="2.171"/><use xlink:href="#6" y="4.342"/><text y="8.183" class="h">url1:</text><text x="6.012" y="8.183" class="h">98.8KiB</text><text x="14.028" y="8.183" class="h">/</text><text x="16.032" y="8.183" class="h">1.3MiB</text><text x="23.046" y="8.183" class="h">[====&gt;---------------------------------------------------------]</text><text x="88.176" y="8.183" class="h">8s</text><text y="10.354" class="h">url2:</text><text x="6.012" y="10.354" class="h">82.3KiB</text><text x="14.028" y="10.354" class="h">/</text><text x="16.032" y="10.354" class="h">1.0MiB</text><text x="23.046" y="10.354" class="h">[====&gt;---------------------------------------------------------]</text><text x="88.176" y="10.354" class="h">4s</text></svg><svg x="2970"><use xlink:href="#a"/><use xlink:href="#b" x="-.004" y="10.83"/><use xlink:href="#3" y="2.171"/><use xlink:href="#6" y="4.342"/><text y="8.183" class="h">url1:</text><text x="7.014" y="8.183" class="h">98.8KiB</text><text x="15.03" y="8.183" class="h">/</text><text x="17.034" y="8.183" class="h">1.3MiB</text><text x="24.048" y="8.183" class="h">[====&gt;---------------------------------------------------------]</text><text x="89.178" y="8.183" class="h">8s</text><text y="10.354" class="h">url2:</text><text x="6.012" y="10.354" class="h">110.1KiB</text><text x="15.03" y="10.354" class="h">/</text><text x="17.034" y="10.354" class="h">1.0MiB</text><text x="24.048" y="10.354" class="h">[======&gt;-------------------------------------------------------]</text><text x="89.178" y="10.354" class="h">4s</text></svg><svg x="3080"><use xlink:href="#a"/><use xlink:href="#b" x="-.004" y="10.83"/><use xlink:href="#3" y="2.171"/><use xlink:href="#6" y="4.342"/><text y="8.183" class="h">url1:</text><text x="6.012" y="8.183" class="h">110.6KiB</text><text x="15.03" y="8.183" class="h">/</text><text x="17.034" y="8.183" class="h">1.3MiB</text><text x="24.048" y="8.183" class="h">[====&gt;---------------------------------------------------------]</text><text x="89.178" y="8.183" class="h">11s</text><text y="10.354" class="h">url2:</text><text x="6.012" y="10.354" class="h">126.1KiB</text><text x="15.03" y="10.354" class="h">/</text><text x="17.034" y="10.354" class="h">1.0MiB</text><text x="24.048" y="10.354" class="h">[=======&gt;------------------------------------------------------]</text><text x="90.18" y="10.354" class="h">4s</text></svg><svg x="3190"><use xlink:href="#a"/><use xlink:href="#b" x="-.004" y="10.83"/><use xlink:href="#3" y="2.171"/><use xlink:href="#6" y="4.342"/><text y="8.183" class="h">url1:</text><text x="6.012" y="8.183" class="h">126.6KiB</text><text x="15.03" y="8.183" class="h">/</text><text x="17.034" y="8.183" class="h">1.3MiB</text><text x="24.048" y="8.183" class="h">[=====&gt;--------------------------------------------------------]</text><text x="89.178" y="8.183" class="h">11s</text><text y="10.354" class="h">url2:</text><text x="6.012" y="10.354" class="h">165.8KiB</text><text x="15.03" y="10.354" class="h">/</text><text x="17.034" y="10.354" class="h">1.0MiB</text><text x="24.048" y="10.354" class="h">[=========&gt;----------------------------------------------------]</text><text x="90.18" y="10.354" class="h">3s</text></svg><svg x="3300"><use xlink:href="#a"/><use xlink:href="#b" x="-.004" y="10.83"/><use xlink:href="#3" y="2.171"/><use xlink:href="#6" y="4.342"/><text y="8.183" class="h">url1:</text><text x="6.012" y="8.183" class="h">138.5KiB</text><text x="15.03" y="8.183" class="h">/</text><text x="17.034" y="8.183" class="h">1.3MiB</text><text x="24.048" y="8.183" class="h">[=====&gt;--------------------------------------------------------]</text><text x="89.178" y="8.183" class="h">10s</text><text y="10.354" class="h">url2:</text><text x="6.012" y="10.354" class="h">181.8KiB</text><text x="15.03" y="10.354" class="h">/</text><text x="17.034" y="10.354" class="h">1.0MiB</text><text x="24.048" y="10.354" class="h">[==========&gt;---------------------------------------------------]</text><text x="90.18" y="10.354" class="h">4s</text></svg><svg x="3410"><use xlink:href="#a"/><use xlink:href="#b" x="-.004" y="10.83"/><use xlink:href="#3" y="2.171"/><use xlink:href="#6" y="4.342"/><use xlink:href="#7" y="6.513"/><text y="10.354" class="h">url2:</text><text x="6.012" y="10.354" class="h">221.5KiB</text><text x="15.03" y="10.354" class="h">/</text><text x="17.034" y="10.354" class="h">1.0MiB</text><text x="24.048" y="10.354" class="h">[============&gt;-------------------------------------------------]</text><text x="89.178" y="10.354" class="h">3s</text></svg><svg x="3520"><use xlink:href="#a"/><use xlink:href="#b" x="-.004" y="10.83"/><use xlink:href="#3" y="2.171"/><use xlink:href="#6" y="4.342"/><use xlink:href="#7" y="6.513"/><text y="10.354" class="h">url2:</text><text x="6.012" y="10.354" class="h">249.3KiB</text><text x="15.03" y="10.354" class="h">/</text><text x="17.034" y="10.354" class="h">1.0MiB</text><text x="24.048" y="10.354" class="h">[==============&gt;-----------------------------------------------]</text><text x="89.178" y="10.354" class="h">3s</text></svg><svg x="3630"><use xlink:href="#a"/><use xlink:href="#b" x="-.004" y="10.83"/><use xlink:href="#3" y="2.171"/><use xlink:href="#6" y="4.342"/><use xlink:href="#8" y="6.513"/><text y="10.354" class="h">url2:</text><text x="6.012" y="10.354" class="h">277.1KiB</text><text x="15.03" y="10.354" class="h">/</text><text x="17.034" y="10.354" class="h">1.0MiB</text><text x="24.048" y="10.354" class="h">[================&gt;---------------------------------------------]</text><text x="89.178" y="10.354" class="h">3s</text></svg><svg x="3740"><use xlink:href="#a"/><use xlink:href="#b" x="-.004" y="10.83"/><use xlink:href="#3" y="2.171"/><use xlink:href="#6" y="4.342"/><use xlink:href="#8" y="6.513"/><text y="10.354" class="h">url2:</text><text x="6.012" y="10.354" class="h">305.0KiB</text><text x="15.03" y="10.354" class="h">/</text><text x="17.034" y="10.354" class="h">1.0MiB</text><text x="24.048" y="10.354" class="h">[=================&gt;--------------------------------------------]</text><text x="89.178" y="10.354" class="h">2s</text></svg><svg x="3850"><use xlink:href="#a"/><use xlink:href="#b" x="-.004" y="10.83"/><use xlink:href="#3" y="2.171"/><use xlink:href="#6" y="4.342"/><text y="8.183" class="h">url1:</text><text x="6.012" y="8.183" class="h">222.0KiB</text><text x="15.03" y="8.183" class="h">/</text><text x="17.034" y="8.183" class="h">1.3MiB</text><text x="24.048" y="8.183" class="h">[=========&gt;----------------------------------------------------]</text><text x="89.178" y="8.183" class="h">8s</text><text y="10.354" class="h">url2:</text><text x="6.012" y="10.354" class="h">332.8KiB</text><text x="15.03" y="10.354" class="h">/</text><text x="17.034" y="10.354" class="h">1.0MiB</text><text x="24.048" y="10.354" class="h">[===================&gt;------------------------------------------]</text><text x="89.178" y="10.354" class="h">2s</text></svg><svg x="3960"><use xlink:href="#a"/><use xlink:href="#b" x="-.004" y="6.488"/><use xlink:href="#3" y="2.171"/><use xlink:href="#6" y="4.342"/></svg><svg x="4070"><use xlink:href="#a"/><use xlink:href="#b" x="-.004" y="10.83"/><use xlink:href="#3" y="2.171"/><use xlink:href="#6" y="4.342"/><text y="8.183" class="h">url1:</text><text x="6.012" y="8.183" class="h">249.8KiB</text><text x="15.03" y="8.183" class="h">/</text><text x="17.034" y="8.183" class="h">1.3MiB</text><text x="24.048" y="8.183" class="h">[==========&gt;---------------------------------------------------]</text><text x="89.178" y="8.183" class="h">6s</text><text y="10.354" class="h">url2:</text><text x="6.012" y="10.354" class="h">388.5KiB</text><text x="15.03" y="10.354" class="h">/</text><text x="17.034" y="10.354" class="h">1.0MiB</text><text x="24.048" y="10.354" class="h">[======================&gt;---------------------------------------]</text><text x="89.178" y="10.354" class="h">1s</text></svg><svg x="4180"><use xlink:href="#a"/><use xlink:href="#b" x="-.004" y="10.83"/><use xlink:href="#3" y="2.171"/><use xlink:href="#6" y="4.342"/><text y="8.183" class="h">url1:</text><text x="6.012" y="8.183" class="h">265.8KiB</text><text x="15.03" y="8.183" class="h">/</text><text x="17.034" y="8.183" class="h">1.3MiB</text><text x="24.048" y="8.183" class="h">[===========&gt;--------------------------------------------------]</text><text x="89.178" y="8.183" class="h">7s</text><text y="10.354" class="h">url2:</text><text x="6.012" y="10.354" class="h">432.3KiB</text><text x="15.03" y="10.354" class="h">/</text><text x="17.034" y="10.354" class="h">1.0MiB</text><text x="24.048" y="10.354" class="h">[=========================&gt;------------------------------------]</text><text x="89.178" y="10.354" class="h">1s</text></svg><svg x="4290"><use xlink:href="#a"/><use xlink:href="#b" x="-.004" y="10.83"/><use xlink:href="#3" y="2.171"/><use xlink:href="#6" y="4.342"/><text y="8.183" class="h">url1:</text><text x="6.012" y="8.183" class="h">293.6KiB</text><text x="15.03" y="8.183" class="h">/</text><text x="17.034" y="8.183" class="h">1.3MiB</text><text x="24.048" y="8.183" class="h">[============&gt;-------------------------------------------------]</text><text x="89.178" y="8.183" class="h">6s</text><text y="10.354" class="h">url2:</text><text x="6.012" y="10.354" class="h">499.8KiB</text><text x="15.03" y="10.354" class="h">/</text><text x="17.034" y="10.354" class="h">1.0MiB</text><text x="24.048" y="10.354" class="h">[=============================&gt;--------------------------------]</text><text x="89.178" y="10.354" class="h">0s</text></svg><svg x="4400"><use xlink:href="#a"/><use xlink:href="#b" x="-.004" y="10.83"/><use xlink:href="#3" y="2.171"/><use xlink:href="#6" y="4.342"/><text y="8.183" class="h">url1:</text><text x="6.012" y="8.183" class="h">305.5KiB</text><text x="15.03" y="8.183" class="h">/</text><text x="17.034" y="8.183" class="h">1.3MiB</text><text x="24.048" y="8.183" class="h">[=============&gt;------------------------------------------------]</text><text x="89.178" y="8.183" class="h">5s</text><text y="10.354" class="h">url2:</text><text x="6.012" y="10.354" class="h">555.5KiB</text><text x="15.03" y="10.354" class="h">/</text><text x="17.034" y="10.354" class="h">1.0MiB</text><text x="24.048" y="10.354" class="h">[=================================&gt;----------------------------]</text><text x="89.178" y="10.354" class="h">1s</text></svg><svg x="4510"><use xlink:href="#a"/><use xlink:href="#b" x="-.004" y="10.83"/><use xlink:href="#3" y="2.171"/><use xlink:href="#6" y="4.342"/><text y="8.183" class="h">url1:</text><text x="6.012" y="8.183" class="h">333.3KiB</text><text x="15.03" y="8.183" class="h">/</text><text x="17.034" y="8.183" class="h">1.3MiB</text><text x="24.048" y="8.183" class="h">[==============&gt;-----------------------------------------------]</text><text x="89.178" y="8.183" class="h">5s</text><text y="10.354" class="h">url2:</text><text x="6.012" y="10.354" class="h">611.2KiB</text><text x="15.03" y="10.354" class="h">/</text><text x="17.034" y="10.354" class="h">1.0MiB</text><text x="24.048" y="10.354" class="h">[====================================&gt;-------------------------]</text><text x="89.178" y="10.354" class="h">0s</text></svg><svg x="4620"><use xlink:href="#a"/><use xlink:href="#b" x="-.004" y="10.83"/><use xlink:href="#3" y="2.171"/><use xlink:href="#6" y="4.342"/><text y="8.183" class="h">url1:</text><text x="6.012" y="8.183" class="h">349.3KiB</text><text x="15.03" y="8.183" class="h">/</text><text x="17.034" y="8.183" class="h">1.3MiB</text><text x="24.048" y="8.183" class="h">[===============&gt;----------------------------------------------]</text><text x="89.178" y="8.183" class="h">6s</text><text y="10.354" class="h">url2:</text><text x="6.012" y="10.354" class="h">666.8KiB</text><text x="15.03" y="10.354" class="h">/</text><text x="17.034" y="10.354" class="h">1.0MiB</text><text x="24.048" y="10.354" class="h">[=======================================&gt;----------------------]</text><text x="89.178" y="10.354" class="h">0s</text></svg><svg x="4730"><use xlink:href="#a"/><use xlink:href="#b" x="-.004" y="10.83"/><use xlink:href="#3" y="2.171"/><use xlink:href="#6" y="4.342"/><text y="8.183" class="h">url1:</text><text x="6.012" y="8.183" class="h">361.1KiB</text><text x="15.03" y="8.183" class="h">/</text><text x="17.034" y="8.183" class="h">1.3MiB</text><text x="24.048" y="8.183" class="h">[===============&gt;----------------------------------------------]</text><text x="89.178" y="8.183" class="h">6s</text><text y="10.354" class="h">url2:</text><text x="6.012" y="10.354" class="h">722.5KiB</text><text x="15.03" y="10.354" class="h">/</text><text x="17.034" y="10.354" class="h">1.0MiB</text><text x="24.048" y="10.354" class="h">[===========================================&gt;------------------]</text><text x="89.178" y="10.354" class="h">0s</text></svg><svg x="4840"><use xlink:href="#a"/><use xlink:href="#b" x="-.004" y="10.83"/><use xlink:href="#3" y="2.171"/><use xlink:href="#6" y="4.342"/><text y="8.183" class="h">url1:</text><text x="6.012" y="8.183" class="h">389.0KiB</text><text x="15.03" y="8.183" class="h">/</text><text x="17.034" y="8.183" class="h">1.3MiB</text><text x="24.048" y="8.183" class="h">[=================&gt;--------------------------------------------]</text><text x="89.178" y="8.183" class="h">5s</text><text y="10.354" class="h">url2:</text><text x="6.012" y="10.354" class="h">778.2KiB</text><text x="15.03" y="10.354" class="h">/</text><text x="17.034" y="10.354" class="h">1.0MiB</text><text x="24.048" y="10.354" class="h">[==============================================&gt;---------------]</text><text x="89.178" y="10.354" class="h">0s</text></svg><svg x="4950"><use xlink:href="#a"/><use xlink:href="#b" x="-.004" y="10.83"/><use xlink:href="#3" y="2.171"/><use xlink:href="#6" y="4.342"/><text y="8.183" class="h">url1:</text><text x="6.012" y="8.183" class="h">416.8KiB</text><text x="15.03" y="8.183" class="h">/</text><text x="17.034" y="8.183" class="h">1.3MiB</text><text x="24.048" y="8.183" class="h">[==================&gt;-------------------------------------------]</text><text x="89.178" y="8.183" class="h">5s</text><text y="10.354" class="h">url2:</text><text x="6.012" y="10.354" class="h">849.8KiB</text><text x="15.03" y="10.354" class="h">/</text><text x="17.034" y="10.354" class="h">1.0MiB</text><text x="24.048" y="10.354" class="h">[==================================================&gt;-----------]</text><text x="89.178" y="10.354" class="h">0s</text></svg><svg x="5060"><use xlink:href="#a"/><use xlink:href="#b" x="-.004" y="10.83"/><use xlink:href="#3" y="2.171"/><use xlink:href="#6" y="4.342"/><text y="8.183" class="h">url1:</text><text x="6.012" y="8.183" class="h">444.7KiB</text><text x="15.03" y="8.183" class="h">/</text><text x="17.034" y="8.183" class="h">1.3MiB</text><text x="24.048" y="8.183" class="h">[===================&gt;------------------------------------------]</text><text x="89.178" y="8.183" class="h">4s</text><text y="10.354" class="h">url2:</text><text x="6.012" y="10.354" class="h">905.5KiB</text><text x="15.03" y="10.354" class="h">/</text><text x="17.034" y="10.354" class="h">1.0MiB</text><text x="24.048" y="10.354" class="h">[======================================================&gt;-------]</text><text x="89.178" y="10.354" class="h">0s</text></svg><svg x="5170"><use xlink:href="#a"/><use xlink:href="#b" x="-.004" y="10.83"/><use xlink:href="#3" y="2.171"/><use xlink:href="#6" y="4.342"/><text y="8.183" class="h">url1:</text><text x="7.014" y="8.183" class="h">472.5KiB</text><text x="16.032" y="8.183" class="h">/</text><text x="18.036" y="8.183" class="h">1.3MiB</text><text x="25.05" y="8.183" class="h">[====================&gt;-----------------------------------------]</text><text x="90.18" y="8.183" class="h">4s</text><text y="10.354" class="h">url2:</text><text x="6.012" y="10.354" class="h">1000.9KiB</text><text x="16.032" y="10.354" class="h">/</text><text x="18.036" y="10.354" class="h">1.0MiB</text><text x="25.05" y="10.354" class="h">[===========================================================&gt;--]</text><text x="90.18" y="10.354" class="h">0s</text></svg><svg x="5280"><use xlink:href="#a"/><use xlink:href="#b" x="-.004" y="10.83"/><use xlink:href="#3" y="2.171"/><use xlink:href="#6" y="4.342"/><text y="8.183" class="h">url1:</text><text x="6.012" y="8.183" class="h">500.3KiB</text><text x="15.03" y="8.183" class="h">/</text><text x="17.034" y="8.183" class="h">1.3MiB</text><text x="24.048" y="8.183" class="h">[======================&gt;---------------------------------------]</text><text x="89.178" y="8.183" class="h">3s</text><use xlink:href="#9" y="8.684"/></svg><svg x="5390"><use xlink:href="#a"/><use xlink:href="#b" x="-.004" y="10.83"/><use xlink:href="#3" y="2.171"/><use xlink:href="#6" y="4.342"/><text y="8.183" class="h">url1:</text><text x="6.012" y="8.183" class="h">556.0KiB</text><text x="15.03" y="8.183" class="h">/</text><text x="17.034" y="8.183" class="h">1.3MiB</text><text x="24.048" y="8.183" class="h">[========================&gt;-------------------------------------]</text><text x="89.178" y="8.183" class="h">2s</text><use xlink:href="#9" y="8.684"/></svg><svg x="5500"><use xlink:href="#a"/><use xlink:href="#b" x="-.004" y="10.83"/><use xlink:href="#3" y="2.171"/><use xlink:href="#6" y="4.342"/><text y="8.183" class="h">url1:</text><text x="6.012" y="8.183" class="h">627.7KiB</text><text x="15.03" y="8.183" class="h">/</text><text x="17.034" y="8.183" class="h">1.3MiB</text><text x="24.048" y="8.183" class="h">[===========================&gt;----------------------------------]</text><text x="89.178" y="8.183" class="h">1s</text><use xlink:href="#9" y="8.684"/></svg><svg x="5610"><use xlink:href="#a"/><use xlink:href="#b" x="-.004" y="10.83"/><use xlink:href="#3" y="2.171"/><use xlink:href="#6" y="4.342"/><text y="8.183" class="h">url1:</text><text x="6.012" y="8.183" class="h">711.2KiB</text><text x="15.03" y="8.183" class="h">/</text><text x="17.034" y="8.183" class="h">1.3MiB</text><text x="24.048" y="8.183" class="h">[===============================&gt;------------------------------]</text><text x="89.178" y="8.183" class="h">0s</text><use xlink:href="#9" y="8.684"/></svg><svg x="5720"><use xlink:href="#a"/><use xlink:href="#b" x="-.004" y="10.83"/><use xlink:href="#3" y="2.171"/><use xlink:href="#6" y="4.342"/><text y="8.183" class="h">url1:</text><text x="6.012" y="8.183" class="h">822.5KiB</text><text x="15.03" y="8.183" class="h">/</text><text x="17.034" y="8.183" class="h">1.3MiB</text><text x="24.048" y="8.183" class="h">[====================================&gt;-------------------------]</text><text x="89.178" y="8.183" class="h">0s</text><use xlink:href="#9" y="8.684"/></svg><svg x="5830"><use xlink:href="#a"/><use xlink:href="#b" x="-.004" y="10.83"/><use xlink:href="#3" y="2.171"/><use xlink:href="#6" y="4.342"/><text y="8.183" class="h">url1:</text><text x="6.012" y="8.183" class="h">917.9KiB</text><text x="15.03" y="8.183" class="h">/</text><text x="17.034" y="8.183" class="h">1.3MiB</text><text x="24.048" y="8.183" class="h">[========================================&gt;---------------------]</text><text x="89.178" y="8.183" class="h">0s</text><use xlink:href="#9" y="8.684"/></svg><svg x="5940"><use xlink:href="#a"/><use xlink:href="#b" x="-.004" y="10.83"/><use xlink:href="#3" y="2.171"/><use xlink:href="#6" y="4.342"/><text y="8.183" class="h">url1:</text><text x="6.012" y="8.183" class="h">1.0MiB</text><text x="13.026" y="8.183" class="h">/</text><text x="15.03" y="8.183" class="h">1.3MiB</text><text x="22.044" y="8.183" class="h">[==============================================&gt;---------------]</text><text x="87.174" y="8.183" class="h">0s</text><use xlink:href="#10" y="8.684"/></svg><svg x="6050"><use xlink:href="#a"/><use xlink:href="#b" x="-.004" y="10.83"/><use xlink:href="#3" y="2.171"/><use xlink:href="#6" y="4.342"/><text y="8.183" class="h">url1:</text><text x="6.012" y="8.183" class="h">1.1MiB</text><text x="13.026" y="8.183" class="h">/</text><text x="15.03" y="8.183" class="h">1.3MiB</text><text x="22.044" y="8.183" class="h">[=================================================&gt;------------]</text><text x="87.174" y="8.183" class="h">0s</text><use xlink:href="#10" y="8.684"/></svg><svg x="6160"><use xlink:href="#a"/><use xlink:href="#b" x="-.004" y="10.83"/><use xlink:href="#3" y="2.171"/><use xlink:href="#6" y="4.342"/><text y="8.183" class="h">url1:</text><text x="6.012" y="8.183" class="h">1.2MiB</text><text x="13.026" y="8.183" class="h">/</text><text x="15.03" y="8.183" class="h">1.3MiB</text><text x="22.044" y="8.183" class="h">[======================================================&gt;-------]</text><text x="87.174" y="8.183" class="h">0s</text><use xlink:href="#10" y="8.684"/></svg><svg x="6270"><use xlink:href="#a"/><use xlink:href="#b" x="-.004" y="10.83"/><use xlink:href="#3" y="2.171"/><use xlink:href="#6" y="4.342"/><text y="8.183" class="h">url1:</text><text x="6.012" y="8.183" class="h">1.2MiB</text><text x="13.026" y="8.183" class="h">/</text><text x="15.03" y="8.183" class="h">1.3MiB</text><text x="22.044" y="8.183" class="h">[=========================================================&gt;----]</text><text x="87.174" y="8.183" class="h">0s</text><use xlink:href="#10" y="8.684"/></svg><svg x="6380"><use xlink:href="#a"/><use xlink:href="#b" x="-.004" y="10.83"/><use xlink:href="#3" y="2.171"/><use xlink:href="#6" y="4.342"/><use xlink:href="#11" y="6.513"/><use xlink:href="#10" y="8.684"/></svg><svg x="6490"><use xlink:href="#a"/><use xlink:href="#b" x="-.004" y="10.83"/><use xlink:href="#3" y="2.171"/><use xlink:href="#6" y="4.342"/><use xlink:href="#11" y="6.513"/><use xlink:href="#10" y="8.684"/></svg><svg x="6600"><use xlink:href="#a"/><use xlink:href="#b" x="-.004" y="10.83"/><use xlink:href="#3" y="2.171"/><use xlink:href="#6" y="4.342"/><use xlink:href="#11" y="6.513"/><use xlink:href="#10" y="8.684"/></svg><svg x="6710"><use xlink:href="#a"/><use xlink:href="#b" x="1.996" y="15.172"/><use xlink:href="#3" y="2.171"/><use xlink:href="#6" y="4.342"/><use xlink:href="#11" y="6.513"/><use xlink:href="#10" y="8.684"/><use xlink:href="#12" y="13.026"/><use xlink:href="#2" y="15.197"/></svg><svg x="6820"><use xlink:href="#a"/><use xlink:href="#b" x="1.996" y="15.172"/><use xlink:href="#3" y="2.171"/><use xlink:href="#6" y="4.342"/><use xlink:href="#11" y="6.513"/><use xlink:href="#10" y="8.684"/><use xlink:href="#12" y="13.026"/><use xlink:href="#2" y="15.197"/></svg><svg x="6930"><use xlink:href="#a"/><use xlink:href="#b" x="1.996" y="15.172"/><use xlink:href="#3" y="2.171"/><use xlink:href="#6" y="4.342"/><use xlink:href="#11" y="6.513"/><use xlink:href="#10" y="8.684"/><use xlink:href="#12" y="13.026"/><use xlink:href="#2" y="15.197"/></svg><svg x="7040"><use xlink:href="#a"/><use xlink:href="#b" x="1.996" y="15.172"/><use xlink:href="#3" y="2.171"/><use xlink:href="#6" y="4.342"/><use xlink:href="#11" y="6.513"/><use xlink:href="#10" y="8.684"/><use xlink:href="#12" y="13.026"/><use xlink:href="#2" y="15.197"/></svg><svg x="7150"><use xlink:href="#a"/><use xlink:href="#b" x="-.004" y="15.172"/><use xlink:href="#3"/><use xlink:href="#6" y="2.171"/><use xlink:href="#11" y="4.342"/><use xlink:href="#10" y="6.513"/><use xlink:href="#12" y="10.855"/><use xlink:href="#2" y="13.026"/></svg></svg></g></g></svg></svg>